<?xml version="1.0" encoding="UTF-8" standalone="no"?>
<svg
xmlns="http://www.w3.org/2000/svg"
width="128"
height="128"
version="1.1">
<circle style="fill:#333333"
cx="64"
cy="64"
r="64"/>
<path style="fill:#111111"
d="m 104.26953,44.95703 c -2.00943,0.004 -4.39511,0.42737 -6.513671,1.16992 -1.221639,0.42786 -3.027897,1.34982 -5.912109,3.00782 -4.956831,2.84929 -7.540563,3.58032 -11.296875,3.18945 -1.514118,-0.15769 -2.42331,-0.35879 -7.685547,-1.67188 -9.136111,-2.28018 -12.960404,-2.94722 -18.83789,-3.29101 -5.468996,-0.31874 -11.603011,-0.11988 -15.595704,0.50976 -4.349472,0.68532 -9.984853,2.08708 -14.072265,3.49024 -5.262716,1.80598 -8.950426,3.98068 -9.910157,5.8457 -1.035045,2.01151 -0.249267,3.43324 4.837891,8.80859 4.600036,4.86006 5.886273,5.97624 6.765625,5.88282 0.298956,-0.0306 0.29854,0.021 0.117188,0.70117 -0.107208,0.40095 -0.136761,0.82183 -0.07227,0.94141 0.13705,0.25522 1.567436,0.69448 2.253906,0.69336 0.246622,-7.6e-4 2.648552,-0.45071 5.335938,-1 2.687388,-0.54931 5.832071,-1.16379 6.984375,-1.37305 l 2.09375,-0.37891 -0.08008,0.67774 c -0.144941,1.20025 -1.237846,4.02799 -2.152344,5.58398 -0.448511,0.76305 -0.897563,1.41602 -1,1.41602 -0.711513,0.0908 -3.045626,0.80008 -3.146485,0.95703 -0.06826,0.10647 0.0092,0.69668 0.175782,1.3125 0.231648,0.86057 0.254358,1.18526 0.101562,1.39453 -0.334856,0.45849 -0.267144,0.85307 0.242188,1.4375 1.434689,1.64568 4.235456,3.19767 9.888672,5.48047 4.57153,1.84634 7.305676,2.77134 9.845703,3.32812 0.859335,0.19507 1.576172,0.34935 1.576172,0.38672 0.0034,0.0228 0.03332,0.57304 0.06641,1.21875 0.160206,3.03874 1.194777,5.7658 2.984375,7.85352 1.368821,1.59746 3.730909,3.35323 6.253906,4.65625 2.757679,1.42407 4.61193,1.54175 5.533203,0.34375 0.372077,-0.4839 1.105143,-2.28478 1.869141,-4.57618 0.662354,-1.98759 1.212204,-3.01538 2.341797,-4.37109 1.23378,-1.4805 1.381011,-1.9244 0.839843,-2.59961 -0.121441,-0.15129 -0.08765,-0.22922 0.261719,-0.54687 0.365456,-0.33144 0.747859,-0.4025 3.59961,-0.66407 4.892849,-0.44991 6.583272,-0.25275 11.224609,1.31446 1.835136,0.61956 2.455174,0.87457 2.626953,1.08008 0.123688,0.14804 0.545451,0.9784 0.933594,1.8457 1.545325,3.45355 2.408899,4.33254 3.511725,3.56836 0.32544,-0.22569 0.50483,-0.57811 1.38671,-2.72266 0.83302,-2.02645 1.07698,-2.50083 1.34961,-2.6914 0.53013,-0.36732 3.93337,-1.13254 5.61329,-1.25586 3.53743,-0.26296 6.67039,0.71833 9.09374,2.78906 a 64,64 0 0 0 7.11719,-14.90625 c -2.30054,-0.11498 -4.5588,-0.64876 -7.02343,-1.64844 -4.62543,-1.87549 -8.13716,-5.07628 -10.82422,-9.86719 -2.64578,-4.71731 -3.06866,-8.33114 -1.48047,-12.66992 1.12109,-3.06378 2.22219,-4.66081 4.97656,-7.22461 1.70384,-1.58589 2.07355,-2.46923 1.5918,-3.78906 -0.64562,-1.769 -3.81935,-3.41702 -6.95508,-3.61133 -0.26985,-0.0169 -0.54888,-0.0259 -0.83594,-0.0254 z"
/>
<path style="fill:#ffffff"
d="m 104.26953,40.95703 c -2.00943,0.004 -4.39511,0.42737 -6.513671,1.16992 -1.221639,0.42786 -3.027897,1.34982 -5.912109,3.00782 -4.956831,2.84929 -7.540563,3.58032 -11.296875,3.18945 -1.514118,-0.15769 -2.42331,-0.35879 -7.685547,-1.67188 -9.136111,-2.28018 -12.960404,-2.94722 -18.83789,-3.29101 -5.468996,-0.31874 -11.603011,-0.11988 -15.595704,0.50976 -4.349472,0.68532 -9.984853,2.08708 -14.072265,3.49024 -5.262716,1.80598 -8.950426,3.98068 -9.910157,5.8457 -1.035045,2.01151 -0.249267,3.43324 4.837891,8.80859 4.600036,4.86006 5.886273,5.97624 6.765625,5.88282 0.298956,-0.0306 0.29854,0.021 0.117188,0.70117 -0.107208,0.40095 -0.136761,0.82183 -0.07227,0.94141 0.13705,0.25522 1.567436,0.69448 2.253906,0.69336 0.246622,-7.6e-4 2.648552,-0.45071 5.335938,-1 2.687388,-0.54931 5.832071,-1.16379 6.984375,-1.37305 l 2.09375,-0.37891 -0.08008,0.67774 c -0.144941,1.20024 -1.237846,4.02799 -2.152344,5.58398 -0.448511,0.76305 -0.897563,1.41602 -1,1.41602 -0.711513,0.0908 -3.045626,0.80008 -3.146485,0.95703 -0.06826,0.10647 0.0092,0.69668 0.175782,1.3125 0.231648,0.86057 0.254358,1.18527 0.101562,1.39453 -0.334856,0.4585 -0.267144,0.85307 0.242188,1.4375 1.434689,1.64568 4.235456,3.19767 9.888672,5.48047 4.57153,1.84634 7.305676,2.77134 9.845703,3.32812 0.859335,0.19507 1.576172,0.34935 1.576172,0.38672 0.0034,0.0228 0.03332,0.57304 0.06641,1.21875 0.160206,3.03874 1.194777,5.7658 2.984375,7.85352 1.368821,1.59746 3.730909,3.35323 6.253906,4.65625 2.757679,1.42407 4.61193,1.54175 5.533203,0.34375 0.372077,-0.4839 1.105143,-2.28478 1.869141,-4.57618 0.662354,-1.98759 1.212204,-3.01538 2.341797,-4.37109 1.23378,-1.48051 1.381011,-1.9244 0.839843,-2.59961 -0.121441,-0.15129 -0.08765,-0.22922 0.261719,-0.54687 0.365456,-0.33144 0.747859,-0.4025 3.59961,-0.66407 4.892849,-0.44991 6.583272,-0.25275 11.224609,1.31446 1.835136,0.61956 2.455174,0.87457 2.626953,1.08008 0.123688,0.14804 0.545451,0.9784 0.933594,1.8457 1.545329,3.45354 2.408903,4.33254 3.511725,3.56836 0.32544,-0.22569 0.50483,-0.57812 1.38671,-2.72266 0.83302,-2.02645 1.07698,-2.50083 1.34961,-2.6914 0.53013,-0.36732 3.93337,-1.13254 5.61329,-1.25586 4.1873,-0.31127 7.82025,1.10413 10.36328,4.02929 0.0852,0.098 0.16157,0.19682 0.24218,0.29493 a 64,64 0 0 0 6.7168,-16.41797 c -2.6936,0.0214 -5.27442,-0.51169 -8.13476,-1.67188 -4.62543,-1.87549 -8.13716,-5.07628 -10.82422,-9.86719 -2.64578,-4.71731 -3.06866,-8.33114 -1.48047,-12.66992 1.12109,-3.06378 2.22219,-4.66081 4.97656,-7.22461 1.70384,-1.58589 2.07355,-2.46923 1.5918,-3.78906 -0.64562,-1.769 -3.81935,-3.41702 -6.95508,-3.61133 -0.26985,-0.0169 -0.54888,-0.0259 -0.83594,-0.0254 z"
/>
</svg>
