<?xml version="1.0" encoding="UTF-8" standalone="no"?>
<svg
xmlns="http://www.w3.org/2000/svg"
width="4000"
height="4000"
version="1.1">
<path
style="fill:#f8f8f8;"
d="M 0 0 L 0 4000 L 1974.248 4000 C 1972.1651 3995.7113 1970.1446 3991.9536 1968.1992 3988.8223 C 1962.4162 3979.5138 1960.5358 3976.1509 1958.1172 3970.873 C 1954.657 3963.3215 1951.399 3961.0908 1939.1895 3957.9551 C 1934.982 3956.8745 1929.9642 3955.4154 1928.0391 3954.709 C 1926.1141 3954.0029 1921.361 3952.5698 1917.4707 3951.5371 C 1908.6678 3949.2 1907.0592 3948.4911 1903.8203 3945.3984 C 1900.5301 3942.2567 1899.0736 3940.1392 1898.4414 3937.5996 C 1897.5529 3934.0299 1898.6336 3927.9099 1900.8984 3923.6055 C 1902.0782 3921.3631 1903.002 3918.9498 1902.9629 3918.2617 C 1902.9229 3917.574 1901.7363 3915.3116 1900.3359 3913.2129 C 1895.9643 3906.6616 1895.4293 3902.5888 1898.4805 3899.4062 C 1900.8466 3896.938 1900.8974 3894.6409 1898.5957 3894.7754 C 1897.7076 3894.8264 1896.1363 3894.2867 1895.1016 3893.5664 C 1893.4053 3892.3852 1893.2012 3891.8073 1892.959 3887.6973 C 1892.5234 3880.3031 1890.2489 3877.9143 1881.6543 3875.8984 C 1873.9097 3874.0819 1870.7844 3872.1805 1867.998 3867.5117 C 1865.6376 3863.557 1867.8433 3854.7849 1873.0508 3847.3516 C 1874.1747 3845.7474 1875.8783 3842.9959 1876.8477 3841.2441 C 1877.8171 3839.4921 1881.7502 3834.5954 1885.5684 3830.373 C 1891.8609 3823.4138 1892.5786 3822.3105 1893.4238 3818.6113 C 1894.1916 3815.2511 1894.2078 3814.0385 1893.4238 3811.6758 C 1892.9014 3810.0974 1892.3231 3806.3828 1892.1504 3803.4238 C 1891.7174 3796.0045 1893.2473 3790.2734 1897.4199 3783.6777 C 1899.2628 3780.7648 1902.1279 3775.0935 1903.791 3771.082 C 1905.4541 3767.0705 1908.8044 3760.4458 1911.2383 3756.3477 C 1912.5329 3754.038 1914.505 3749.1717 1915.7227 3745.7598 C 1913.935 3744.0408 1908.4844 3749.3359 1908.4844 3749.3359 C 1909.8671 3743.6286 1910.5795 3740.8131 1900.9785 3748.8828 C 1904.0648 3740.5333 1909.0516 3733.5849 1913.3301 3727.2637 C 1930.0093 3700.5847 1966.1171 3689.4112 1995.1055 3683.6367 C 2021.5856 3678.3619 2036.6544 3679.3925 2057.498 3683.1211 C 2081.1804 3687.3572 2099.5589 3700.465 2115.7773 3727.2871 C 2125.6683 3744.7479 2129.3801 3753.2245 2131.9473 3775.4727 C 2134.1001 3794.1307 2132.6354 3807.0793 2128.8145 3824.1406 C 2121.6237 3852.9413 2108.5686 3880.3714 2096.7598 3912.0254 C 2095.2744 3913.8726 2095.1121 3922.146 2096.3691 3931.7422 C 2097.4414 3939.8043 2099.363 3948.1355 2102.6602 3955.543 L 2114.1738 3953.3652 L 2119.127 3977.9648 L 2131.6523 4000 L 4000 4000 L 4000 0 L 0 0 z "
/>
</svg>
