<?xml version="1.0" encoding="UTF-8" standalone="no"?>
<svg
xmlns="http://www.w3.org/2000/svg"
width="320"
height="320"
version="1.1">
<g
transform="matrix(0.49999999,0,0,0.49999999,4.366324e-6,-206.18109)">
<path
style="fill:#000000;fill-opacity:0.05"
d="m 268.49443,1052.3622 c -4.16585,-8.5773 -8.20666,-16.0927 -12.09737,-22.3553 -11.56605,-18.617 -15.32552,-25.3444 -20.16258,-35.90033 -6.92052,-15.10303 -13.43775,-19.56226 -37.8567,-25.83375 -8.41496,-2.16115 -18.44938,-5.07825 -22.29952,-6.49092 -3.85012,-1.41222 -13.35444,-4.2791 -21.1351,-6.34455 -17.60567,-4.67414 -20.82609,-6.09274 -27.30397,-12.27812 -6.58042,-6.28351 -9.49309,-10.51992 -10.7575,-15.59912 -1.77713,-7.13949 0.38754,-19.37854 4.9172,-27.9873 2.35952,-4.48474 4.20701,-9.3116 4.12864,-10.68783 -0.0792,-1.37542 -2.45521,-5.8997 -5.25595,-10.09711 -8.74325,-13.10274 -9.81152,-21.24715 -3.70922,-27.61214 4.73232,-4.93644 4.83367,-9.53024 0.23019,-9.26137 -1.77616,0.10289 -4.92188,-0.97699 -6.99137,-2.4176 -3.39261,-2.36226 -3.79714,-3.51844 -4.28148,-11.73834 -0.87124,-14.78849 -5.42345,-19.56631 -22.612763,-23.59821 -15.489086,-3.63293 -21.736574,-7.43572 -27.309412,-16.7734 -4.720633,-7.90949 -0.309354,-25.45444 10.105766,-40.32105 2.247613,-3.20839 5.654135,-8.71315 7.592847,-12.2168 1.938886,-3.50387 9.804746,-13.29473 17.44105,-21.73962 12.584992,-13.91831 14.019702,-16.12481 15.710092,-23.52305 1.53551,-6.72044 1.56802,-9.14617 0.003,-13.87157 -1.04483,-3.15664 -2.20209,-10.58857 -2.54738,-16.50658 -0.86608,-14.8385 2.19433,-26.29831 10.53957,-39.48981 3.68567,-5.82562 9.41793,-17.16723 12.74416,-25.19034 3.32617,-8.02306 10.02413,-21.27272 14.89204,-29.4689 2.58915,-4.61938 6.53242,-14.3541 8.96782,-21.17782 -3.5755,-3.43798 -14.47446,7.15131 -14.47446,7.15131 2.76538,-11.41464 4.1897,-17.04387 -15.01226,-0.90462 6.17255,-16.69888 16.14532,-30.59767 24.70226,-43.24011 33.35841,-53.35814 105.57559,-75.70321 163.55228,-87.25219 52.96032,-10.5496 83.09806,-8.48802 124.78533,-1.03088 47.3648,8.47218 84.11998,34.6861 116.55686,88.33016 19.78195,34.92158 27.20558,51.87454 32.33988,96.37092 4.30571,37.31592 1.37724,63.21616 -6.26462,97.33875 -14.3815,57.60135 -40.49267,112.46048 -64.1103,175.76831 -2.97078,3.6945 -3.29496,20.24181 -0.78106,39.43435 2.14466,16.12415 5.98797,32.78746 12.58248,47.60259 l 23.02972,-4.35585 9.90415,49.19979 25.05283,44.0684 -314.81682,0 z"
/>
</g>
</svg>
