<?xml version="1.0" encoding="UTF-8" standalone="no"?>
<svg
xmlns="http://www.w3.org/2000/svg"
width="72"
height="80"
version="1.1">
<g transform="matrix(1.7139824,0,0,1.7139824,-5.1358058,-1722.594)">
<path
style="fill:#333333"
d="m 22.273438,0.66210938 a 4.5990644,4.5990644 0 0 0 -4.59961,4.59960942 4.5990644,4.5990644 0 0 0 4.59961,4.5996093 4.5990644,4.5990644 0 0 0 4.599609,-4.5996093 4.5990644,4.5990644 0 0 0 -4.599609,-4.59960942 z M 11.847656,4.4160156 a 1.1971985,1.1971985 0 0 0 -1.197265,1.1972656 1.1971985,1.1971985 0 0 0 1.197265,1.1972657 1.1971985,1.1971985 0 0 0 1.197266,-1.1972657 1.1971985,1.1971985 0 0 0 -1.197266,-1.1972656 z m 2.482422,3.6699219 a 3.2487876,3.2487876 0 0 0 -3.248047,3.2500005 3.2487876,3.2487876 0 0 0 3.248047,3.248046 3.2487876,3.2487876 0 0 0 3.25,-3.248046 3.2487876,3.2487876 0 0 0 -3.25,-3.2500005 z M 8.0683594,13.269531 a 1.7370902,1.7370902 0 0 0 -1.7382813,1.736328 1.7370902,1.7370902 0 0 0 1.7382813,1.738282 1.7370902,1.7370902 0 0 0 1.7363281,-1.738282 1.7370902,1.7370902 0 0 0 -1.7363281,-1.736328 z m 2.5195316,5.25586 a 2.115562,2.115562 0 0 0 -2.1152348,2.115234 2.115562,2.115562 0 0 0 2.1152348,2.117187 2.115562,2.115562 0 0 0 2.117187,-2.117187 2.115562,2.115562 0 0 0 -2.117187,-2.115234 z m -4.1289066,5.24414 A 1.2738861,1.2738861 0 0 0 5.1855469,25.044922 1.2738861,1.2738861 0 0 0 6.4589844,26.318359 1.2738861,1.2738861 0 0 0 7.7324219,25.044922 1.2738861,1.2738861 0 0 0 6.4589844,23.769531 Z M 28.8125,27.625 c -0.577724,-0.0361 -1.318856,0.07954 -1.966797,0.306641 -0.326923,0.1145 -0.810186,0.360987 -1.582031,0.804687 -1.326499,0.7625 -2.01821,0.958116 -3.023438,0.853516 -0.405195,-0.0422 -0.64841,-0.09587 -2.05664,-0.447266 -2.444919,-0.6102 -3.468143,-0.788859 -5.041016,-0.880859 -1.46356,-0.0853 -3.105341,-0.03178 -4.173828,0.136719 -1.1639662,0.183399 -2.6717922,0.558093 -3.765625,0.933593 -1.4083567,0.4833 -2.3955122,1.065353 -2.6523438,1.564453 -0.27699,0.5383 -0.066454,0.918922 1.2949219,2.357422 1.2310205,1.3006 1.5752234,1.599219 1.8105469,1.574219 0.080002,-0.0082 0.079791,0.0055 0.03125,0.1875 -0.028676,0.1073 -0.036822,0.219953 -0.019531,0.251953 0.03669,0.0683 0.4198114,0.185847 0.6035156,0.185547 0.066,-2e-4 0.7085637,-0.120578 1.4277344,-0.267578 0.719171,-0.147 1.560773,-0.311188 1.86914,-0.367188 l 0.560547,-0.101562 -0.02148,0.181641 c -0.0388,0.321199 -0.331444,1.07774 -0.576172,1.49414 -0.120024,0.2042 -0.240168,0.378906 -0.267578,0.378906 -0.19041,0.0243 -0.814807,0.21386 -0.841797,0.25586 -0.01826,0.0285 0.0024,0.186762 0.04687,0.351562 0.06199,0.2303 0.06825,0.317047 0.02734,0.373047 -0.08961,0.1227 -0.07185,0.228366 0.06445,0.384766 0.38394,0.4404 1.133623,0.855897 2.646484,1.466797 1.223387,0.4941 1.955026,0.741625 2.634766,0.890625 0.229967,0.0522 0.421875,0.09352 0.421875,0.103515 8.5e-4,0.0061 0.0087,0.153372 0.01758,0.326172 0.04289,0.8132 0.319915,1.542863 0.798828,2.101563 0.366312,0.4275 0.998644,0.897393 1.673828,1.246093 0.73798,0.3811 1.233928,0.412397 1.480469,0.0918 0.09957,-0.1295 0.295547,-0.611409 0.5,-1.224609 0.177252,-0.5319 0.324659,-0.807122 0.626953,-1.169922 0.33017,-0.3962 0.369431,-0.514613 0.22461,-0.695312 -0.03248,-0.0405 -0.02319,-0.06148 0.07031,-0.146485 0.0978,-0.0887 0.199734,-0.107734 0.962891,-0.177734 1.309377,-0.1204 1.761836,-0.06784 3.003906,0.351562 0.491101,0.1658 0.657155,0.234063 0.703125,0.289063 0.0331,0.0396 0.146129,0.26204 0.25,0.49414 0.413546,0.9242 0.644328,1.159579 0.939453,0.955078 0.08709,-0.0604 0.135096,-0.154615 0.371094,-0.728515 0.222925,-0.5423 0.288368,-0.669703 0.361328,-0.720703 0.141869,-0.0983 1.052392,-0.302938 1.501953,-0.335938 1.12057,-0.0833 2.092897,0.295325 2.773438,1.078125 0.344804,0.3967 0.527587,0.753294 1.207031,2.371094 0.683113,1.6266 0.933697,2.124566 1.236328,2.447266 0.179403,0.1911 0.302458,0.230625 0.449219,0.140625 0.09889,-0.0606 0.128326,-0.111125 0.261718,-0.453125 0.153719,-0.3944 0.191191,-0.566197 0.359375,-1.654297 0.148617,-0.9614 0.237802,-1.277144 0.617188,-2.214844 0.29951,-0.7402 0.365965,-0.879097 0.554687,-1.154297 0.68227,-0.9951 1.027352,-1.246897 3.296875,-2.404297 1.011764,-0.516 1.563871,-0.884934 2.140625,-1.427734 0.443024,-0.4169 0.653389,-0.691222 0.800782,-1.044922 0.11804,-0.2836 0.127267,-0.324841 0.08594,-0.431641 -0.09206,-0.2384 -0.387732,-0.311765 -1.042969,-0.259765 -0.843032,0.0666 -1.756395,0.2766 -4.322265,1 -2.039639,0.5751 -2.625102,0.703765 -3.464844,0.759765 -0.838435,0.0556 -1.617202,-0.07985 -2.494141,-0.435547 -1.23781,-0.501899 -2.177397,-1.358525 -2.896484,-2.640624 -0.708037,-1.262401 -0.821501,-2.229525 -0.396484,-3.390626 0.300016,-0.819899 0.594937,-1.247493 1.332031,-1.933593 C 30.70401,29.181072 30.802745,28.945 30.673823,28.5918 30.501047,28.118397 29.651652,27.677 28.8125,27.625 Z"
transform="translate(0,1004.3622)"/>
</g>
</svg>
