<?xml version="1.0" encoding="UTF-8" standalone="no"?>
<svg
xmlns="http://www.w3.org/2000/svg"
width="180"
height="80"
version="1.1">
<g transform="translate(136.44447,-971.6992)">
<path style="fill:#333;stroke:none"
d="m 22.273438,0.66210938 a 4.5990644,4.5990644 0 0 0 -4.59961,4.59960942 4.5990644,4.5990644 0 0 0 4.59961,4.5996093 4.5990644,4.5990644 0 0 0 4.599609,-4.5996093 4.5990644,4.5990644 0 0 0 -4.599609,-4.59960942 z M 11.847656,4.4160156 a 1.1971985,1.1971985 0 0 0 -1.197265,1.1972656 1.1971985,1.1971985 0 0 0 1.197265,1.1972657 1.1971985,1.1971985 0 0 0 1.197266,-1.1972657 1.1971985,1.1971985 0 0 0 -1.197266,-1.1972656 z m 2.482422,3.6699219 a 3.2487876,3.2487876 0 0 0 -3.248047,3.2500005 3.2487876,3.2487876 0 0 0 3.248047,3.248046 3.2487876,3.2487876 0 0 0 3.25,-3.248046 3.2487876,3.2487876 0 0 0 -3.25,-3.2500005 z M 8.0683594,13.269531 a 1.7370902,1.7370902 0 0 0 -1.7382813,1.736328 1.7370902,1.7370902 0 0 0 1.7382813,1.738282 1.7370902,1.7370902 0 0 0 1.7363281,-1.738282 1.7370902,1.7370902 0 0 0 -1.7363281,-1.736328 z m 2.5195316,5.25586 a 2.115562,2.115562 0 0 0 -2.1152348,2.115234 2.115562,2.115562 0 0 0 2.1152348,2.117187 2.115562,2.115562 0 0 0 2.117187,-2.117187 2.115562,2.115562 0 0 0 -2.117187,-2.115234 z m -4.1289066,5.24414 A 1.2738861,1.2738861 0 0 0 5.1855469,25.044922 1.2738861,1.2738861 0 0 0 6.4589844,26.318359 1.2738861,1.2738861 0 0 0 7.7324219,25.044922 1.2738861,1.2738861 0 0 0 6.4589844,23.769531 Z M 28.8125,27.625 c -0.577724,-0.0361 -1.318856,0.07954 -1.966797,0.306641 -0.326923,0.1145 -0.810186,0.360987 -1.582031,0.804687 -1.326499,0.7625 -2.01821,0.958116 -3.023438,0.853516 -0.405195,-0.0422 -0.64841,-0.09587 -2.05664,-0.447266 -2.444919,-0.6102 -3.468143,-0.788859 -5.041016,-0.880859 -1.46356,-0.0853 -3.105341,-0.03178 -4.173828,0.136719 -1.1639662,0.183399 -2.6717922,0.558093 -3.765625,0.933593 -1.4083567,0.4833 -2.3955122,1.065353 -2.6523438,1.564453 -0.27699,0.5383 -0.066454,0.918922 1.2949219,2.357422 1.2310205,1.3006 1.5752234,1.599219 1.8105469,1.574219 0.080002,-0.0082 0.079791,0.0055 0.03125,0.1875 -0.028676,0.1073 -0.036822,0.219953 -0.019531,0.251953 0.03669,0.0683 0.4198114,0.185847 0.6035156,0.185547 0.066,-2e-4 0.7085637,-0.120578 1.4277344,-0.267578 0.719171,-0.147 1.560773,-0.311188 1.86914,-0.367188 l 0.560547,-0.101562 -0.02148,0.181641 c -0.0388,0.321199 -0.331444,1.07774 -0.576172,1.49414 -0.120024,0.2042 -0.240168,0.378906 -0.267578,0.378906 -0.19041,0.0243 -0.814807,0.21386 -0.841797,0.25586 -0.01826,0.0285 0.0024,0.186762 0.04687,0.351562 0.06199,0.2303 0.06825,0.317047 0.02734,0.373047 -0.08961,0.1227 -0.07185,0.228366 0.06445,0.384766 0.38394,0.4404 1.133623,0.855897 2.646484,1.466797 1.223387,0.4941 1.955026,0.741625 2.634766,0.890625 0.229967,0.0522 0.421875,0.09352 0.421875,0.103515 8.5e-4,0.0061 0.0087,0.153372 0.01758,0.326172 0.04289,0.8132 0.319915,1.542863 0.798828,2.101563 0.366312,0.4275 0.998644,0.897393 1.673828,1.246093 0.73798,0.3811 1.233928,0.412397 1.480469,0.0918 0.09957,-0.1295 0.295547,-0.611409 0.5,-1.224609 0.177252,-0.5319 0.324659,-0.807122 0.626953,-1.169922 0.33017,-0.3962 0.369431,-0.514613 0.22461,-0.695312 -0.03248,-0.0405 -0.02319,-0.06148 0.07031,-0.146485 0.0978,-0.0887 0.199734,-0.107734 0.962891,-0.177734 1.309377,-0.1204 1.761836,-0.06784 3.003906,0.351562 0.491101,0.1658 0.657155,0.234063 0.703125,0.289063 0.0331,0.0396 0.146129,0.26204 0.25,0.49414 0.413546,0.9242 0.644328,1.159579 0.939453,0.955078 0.08709,-0.0604 0.135096,-0.154615 0.371094,-0.728515 0.222925,-0.5423 0.288368,-0.669703 0.361328,-0.720703 0.141869,-0.0983 1.052392,-0.302938 1.501953,-0.335938 1.12057,-0.0833 2.092897,0.295325 2.773438,1.078125 0.344804,0.3967 0.527587,0.753294 1.207031,2.371094 0.683113,1.6266 0.933697,2.124566 1.236328,2.447266 0.179403,0.1911 0.302458,0.230625 0.449219,0.140625 0.09889,-0.0606 0.128326,-0.111125 0.261718,-0.453125 0.153719,-0.3944 0.191191,-0.566197 0.359375,-1.654297 0.148617,-0.9614 0.237802,-1.277144 0.617188,-2.214844 0.29951,-0.7402 0.365965,-0.879097 0.554687,-1.154297 0.68227,-0.9951 1.027352,-1.246897 3.296875,-2.404297 1.011764,-0.516 1.563871,-0.884934 2.140625,-1.427734 0.443024,-0.4169 0.653389,-0.691222 0.800782,-1.044922 0.11804,-0.2836 0.127267,-0.324841 0.08594,-0.431641 -0.09206,-0.2384 -0.387732,-0.311765 -1.042969,-0.259765 -0.843032,0.0666 -1.756395,0.2766 -4.322265,1 -2.039639,0.5751 -2.625102,0.703765 -3.464844,0.759765 -0.838435,0.0556 -1.617202,-0.07985 -2.494141,-0.435547 -1.23781,-0.501899 -2.177397,-1.358525 -2.896484,-2.640624 -0.708037,-1.262401 -0.821501,-2.229525 -0.396484,-3.390626 0.300016,-0.819899 0.594937,-1.247493 1.332031,-1.933593 C 30.70401,29.181072 30.802745,28.945 30.673823,28.5918 30.501047,28.118397 29.651652,27.677 28.8125,27.625 Z"
transform="translate(0,1004.3622)"/>
</g>
<g>
<path
d="m 3.0332136,0.20299703 2.2630396,0 2.8645118,7.63869817 2.879549,-7.63869817 2.263039,0 0,11.22497697 -1.481125,0 0,-9.8566275 -2.8945859,7.6988454 -1.5262359,0 -2.8945854,-7.6988454 0,9.8566275 -1.4736072,0 0,-11.22497697 z"
style="fill:#333;stroke:none"/>
<path
d="m 25.892451,1.6991594 -2.060043,5.5861739 4.127604,0 -2.067561,-5.5861739 z m -0.857098,-1.49616237 1.721714,0 4.277972,11.22497697 -1.578865,0 -1.022503,-2.8795489 -5.059886,0 -1.022503,2.8795489 -1.60142,0 4.285491,-11.22497697 z"
style="fill:#333;stroke:none"/>
<path
d="m 43.834652,6.1650912 q 0.488697,0.1654048 0.947319,0.7067299 0.466141,0.5413251 0.932282,1.4886439 l 1.541273,3.067509 -1.631494,0 -1.436015,-2.8795489 Q 43.631655,7.4206646 43.105367,7.0522628 42.586597,6.683861 41.684389,6.683861 l -1.654049,0 0,4.744113 -1.518718,0 0,-11.22497697 3.428393,0 q 1.924711,0 2.87203,0.80446917 0.947319,0.8044692 0.947319,2.4284444 0,1.0600949 -0.496215,1.7593065 -0.488696,0.6992115 -1.428497,0.9698741 z M 40.03034,1.451052 l 0,3.984754 1.909675,0 q 1.097686,0 1.654048,-0.503733 0.563881,-0.5112515 0.563881,-1.4961624 0,-0.9849109 -0.563881,-1.4811255 Q 43.037701,1.451052 41.940015,1.451052 l -1.909675,0 z"
style="fill:#333;stroke:none"/>
<path
d="m 55.062919,0.20299703 1.518717,0 0,4.74411277 5.037331,-4.74411277 1.954785,0 -5.571137,5.23280897 5.969612,5.992168 -1.999895,0 -5.390696,-5.4057325 0,5.4057325 -1.518717,0 0,-11.22497697 z"
style="fill:#333;stroke:none"/>
<path
d="m 70.418793,0.20299703 1.526236,0 0,6.81919217 q 0,1.8044169 0.654101,2.6013677 0.654101,0.7894321 2.120189,0.7894321 1.458571,0 2.112672,-0.7894321 0.654101,-0.7969508 0.654101,-2.6013677 l 0,-6.81919217 1.526236,0 0,7.00715227 q 0,2.1953739 -1.090169,3.3156157 -1.08265,1.120242 -3.20284,1.120242 -2.127708,0 -3.217876,-1.120242 -1.08265,-1.1202418 -1.08265,-3.3156157 l 0,-7.00715227 z"
style="fill:#333;stroke:none"/>
<path
d="m 94.443375,0.57139881 0,1.48112549 Q 93.578759,1.6390121 92.811882,1.4360152 92.045005,1.2330183 91.330756,1.2330183 q -1.240536,0 -1.917193,0.4811779 -0.669138,0.4811778 -0.669138,1.3683494 0,0.744322 0.443586,1.1277606 0.451104,0.3759202 1.699159,0.6089907 l 0.917246,0.1879601 q 1.699159,0.3232913 2.503628,1.1427974 0.811988,0.8119876 0.811988,2.180337 0,1.6314936 -1.097687,2.4735546 -1.090169,0.842061 -3.20284,0.842061 -0.796951,0 -1.699159,-0.180441 -0.89469,-0.180442 -1.857046,-0.533807 l 0,-1.5638279 q 0.924764,0.5187699 1.811935,0.7819139 0.887172,0.263144 1.74427,0.263144 1.300684,0 2.007414,-0.5112512 0.70673,-0.5112515 0.70673,-1.4585703 0,-0.8270244 -0.511252,-1.2931655 Q 92.518664,6.683861 91.36083,6.4507905 L 90.436066,6.2703488 Q 88.736907,5.9320206 87.977548,5.2102539 87.218189,4.4884871 87.218189,3.2028401 q 0,-1.4886439 1.045059,-2.34574195 Q 89.315824,1.2665987e-7 91.157833,1.2665987e-7 q 0.789432,0 1.608938,0.14284967334013 0.819506,0.14284967 1.676604,0.42854901 z"
style="fill:#333;stroke:none"/>
<path
d="m 114.11058,0.20299703 6.45079,0 0,1.27812867 -4.93207,0 0,3.3080976 4.4509,0 0,1.2781286 -4.4509,0 0,5.3606221 -1.51872,0 0,-11.22497697 z"
style="fill:#333;stroke:none"/>
<path
d="m 128.79731,0.20299703 1.51872,0 0,11.22497697 -1.51872,0 0,-11.22497697 z"
style="fill:#333;stroke:none"/>
<path
d="m 145.91248,0.57139881 0,1.48112549 q -0.86461,-0.4135122 -1.63149,-0.6165091 -0.76688,-0.2029969 -1.48113,-0.2029969 -1.24053,0 -1.91719,0.4811779 -0.66914,0.4811778 -0.66914,1.3683494 0,0.744322 0.44359,1.1277606 0.4511,0.3759202 1.69916,0.6089907 l 0.91724,0.1879601 q 1.69916,0.3232913 2.50363,1.1427974 0.81199,0.8119876 0.81199,2.180337 0,1.6314936 -1.09769,2.4735546 -1.09017,0.842061 -3.20284,0.842061 -0.79695,0 -1.69916,-0.180441 -0.89469,-0.180442 -1.85704,-0.533807 l 0,-1.5638279 q 0.92476,0.5187699 1.81193,0.7819139 0.88718,0.263144 1.74427,0.263144 1.30069,0 2.00742,-0.5112512 0.70673,-0.5112515 0.70673,-1.4585703 0,-0.8270244 -0.51125,-1.2931655 -0.50374,-0.466141 -1.66157,-0.6992115 l -0.92477,-0.1804417 q -1.69915,-0.3383282 -2.45851,-1.0600949 -0.75936,-0.7217668 -0.75936,-2.0074138 0,-1.4886439 1.04506,-2.34574195 Q 140.78493,1.2665987e-7 142.62694,1.2665987e-7 q 0.78943,0 1.60894,0.14284967334013 0.81951,0.14284967 1.6766,0.42854901 z"
style="fill:#333;stroke:none"/>
<path
d="m 163.23818,1.0676135 0,1.6014199 q -0.76688,-0.7142483 -1.63901,-1.0676133 -0.86462,-0.353365 -1.84201,-0.353365 -1.92471,0 -2.94721,1.1803894 -1.02251,1.172871 -1.02251,3.3983185 0,2.2179291 1.02251,3.3983185 1.0225,1.1728705 2.94721,1.1728705 0.97739,0 1.84201,-0.353365 0.87213,-0.3533645 1.63901,-1.0676129 l 0,1.5863829 q -0.79695,0.541325 -1.69164,0.811988 -0.88717,0.270662 -1.8796,0.270662 -2.54874,0 -4.01483,-1.556309 -1.46609,-1.5638281 -1.46609,-4.262935 0,-2.7066253 1.46609,-4.2629349 Q 157.1182,1.2665987e-7 159.66694,1.2665987e-7 q 1.00747,0 1.89464,0.27066253334013 0.89469,0.26314413 1.6766,0.79695084 z"
style="fill:#333;stroke:none"/>
<path
d="m 171.44406,0.20299703 1.51871,0 0,4.60126307 5.51851,0 0,-4.60126307 1.51872,0 0,11.22497697 -1.51872,0 0,-5.3455853 -5.51851,0 0,5.3455853 -1.51871,0 0,-11.22497697 z"
style="fill:#333;stroke:none"/>
</g>
</svg>
