<?xml version="1.0" encoding="UTF-8" standalone="no"?>
<svg
xmlns="http://www.w3.org/2000/svg"
width="72"
height="80"
version="1.1">
<path
style="fill:#111"
d="m 33.03662,0.3761417 c -4.316188,-4.2747e-4 -7.815251,3.4985692 -7.81476,7.8147483 0,4.316176 3.498572,7.815259 7.81476,7.814746 4.316166,4.27e-4 7.815251,-3.49857 7.814738,-7.814746 0,-4.3161791 -3.498572,-7.81525911 -7.814738,-7.8147483 z M 15.32318,6.7540365 c -1.123453,-6.19e-5 -2.034209,0.9106989 -2.034145,2.0341584 -6.4e-5,1.1234595 0.910692,2.0342201 2.034145,2.0341561 1.123475,6.4e-5 2.034232,-0.9106966 2.034167,-2.0341561 6.5e-5,-1.1234595 -0.910692,-2.0342203 -2.034167,-2.0341584 z m 4.217641,6.2352065 c -3.04875,6.41e-4 -5.519573,2.473001 -5.518419,5.52176 0,3.04746 2.470972,5.517741 5.518419,5.518438 3.048771,0.0011 5.521069,-2.469682 5.521774,-5.518438 0.0021,-3.050056 -2.471699,-5.522899 -5.521774,-5.52176 z M 8.9021478,21.79618 c -1.6302531,-0.0011 -2.9526173,1.319772 -2.953344,2.950026 -0.00214,1.63155 1.3218087,2.954466 2.953344,2.953346 1.6302532,-6.42e-4 2.9511432,-1.323091 2.9500312,-2.953346 0,-1.628958 -1.321061,-2.949309 -2.9500312,-2.950026 z m 4.2806882,8.92972 c -1.984647,2.13e-4 -3.5934639,1.60912 -3.5937845,3.593788 -0.00214,1.985962 1.6078335,3.596799 3.5937845,3.597104 1.987276,0.0015 3.598637,-1.609847 3.597119,-3.597104 0,-1.985964 -1.611146,-3.595314 -3.597119,-3.593788 z m -7.0150095,8.909806 c -1.1960332,4.27e-4 -2.1649863,0.970863 -2.1635758,2.166892 0,1.194734 0.9688463,2.163151 2.1635758,2.163572 1.1947293,-4.27e-4 2.1631481,-0.968838 2.1635756,-2.163572 0.00214,-1.196029 -0.9675426,-2.166472 -2.1635756,-2.166892 z m 37.9786815,6.550452 c -4.957462,-0.167676 -6.961109,4.014238 -11.166311,3.338273 -3.74183,-0.601479 -7.822688,-2.05294 -12.058922,-2.256487 -4.629505,-0.222441 -9.290619,0.397481 -13.4891525,1.818463 -2.392793,0.821128 -4.1112278,1.790049 -4.5063363,2.65801 -0.7359531,1.616733 5.1464989,7.857438 6.3214805,7.741743 2.5273743,-0.289452 4.3102243,-0.844528 6.5537753,-1.251022 -0.504919,3.597542 -3.497053,4.897392 -2.66467,5.810456 1.858317,1.740863 6.349864,3.285753 9.689619,4.181138 0.359716,3.304822 1.54782,4.834593 4.230933,6.241842 1.253824,0.647491 2.096446,0.700663 2.51532,0.155968 0.727041,-1.389503 0.994728,-2.952094 1.914696,-4.068312 0.98058,-1.358879 -0.126438,-1.577205 2.137011,-1.732186 2.528677,0.06079 3.932556,-0.02618 6.298249,1.088421 0.470381,0.779434 1.342753,3.055244 2.020894,2.462226 0.760211,-0.664775 0.491049,-1.588579 1.244378,-2.462226 2.578645,-0.975392 5.653876,-0.525542 7.263911,1.26098 1.964515,2.352919 2.036026,5.865143 4.151279,8.186405 0.728131,0.669171 1.036468,-0.09299 1.207874,-0.53094 0.636401,-2.278776 0.836893,-4.532041 1.65919,-6.573679 1.270024,-3.535144 4.618242,-5.060979 6.543817,-6.046059 1.92893,-1.140438 4.145701,-2.208408 4.997449,-4.201049 0.594725,-1.220547 -1.066475,-1.229737 -1.626,-1.1747 -5.028717,0.494648 -9.858842,2.759628 -13.230313,2.989844 -4.007231,0.273629 -7.4173,-2.166082 -9.158689,-5.22642 -1.818029,-3.856786 -1.010992,-6.603119 1.589496,-9.045863 2.334704,-2.120261 -0.857689,-3.268493 -2.438978,-3.364826 z"/>
</svg>
