<?xml version="1.0" encoding="UTF-8" standalone="no"?>
<svg
xmlns:svg="http://www.w3.org/2000/svg"
xmlns="http://www.w3.org/2000/svg"
width="180"
height="80"
version="1.1">
<g transform="translate(65.999867,-971.6992)">
<path style="fill:#333333;stroke:none" d="m 22.273438,0.66210938 a 4.5990644,4.5990644 0 0 0 -4.59961,4.59960942 4.5990644,4.5990644 0 0 0 4.59961,4.5996093 4.5990644,4.5990644 0 0 0 4.599609,-4.5996093 4.5990644,4.5990644 0 0 0 -4.599609,-4.59960942 z M 11.847656,4.4160156 a 1.1971985,1.1971985 0 0 0 -1.197265,1.1972656 1.1971985,1.1971985 0 0 0 1.197265,1.1972657 1.1971985,1.1971985 0 0 0 1.197266,-1.1972657 1.1971985,1.1971985 0 0 0 -1.197266,-1.1972656 z m 2.482422,3.6699219 a 3.2487876,3.2487876 0 0 0 -3.248047,3.2500005 3.2487876,3.2487876 0 0 0 3.248047,3.248046 3.2487876,3.2487876 0 0 0 3.25,-3.248046 3.2487876,3.2487876 0 0 0 -3.25,-3.2500005 z M 8.0683594,13.269531 a 1.7370902,1.7370902 0 0 0 -1.7382813,1.736328 1.7370902,1.7370902 0 0 0 1.7382813,1.738282 1.7370902,1.7370902 0 0 0 1.7363281,-1.738282 1.7370902,1.7370902 0 0 0 -1.7363281,-1.736328 z m 2.5195316,5.25586 a 2.115562,2.115562 0 0 0 -2.1152348,2.115234 2.115562,2.115562 0 0 0 2.1152348,2.117187 2.115562,2.115562 0 0 0 2.117187,-2.117187 2.115562,2.115562 0 0 0 -2.117187,-2.115234 z m -4.1289066,5.24414 A 1.2738861,1.2738861 0 0 0 5.1855469,25.044922 1.2738861,1.2738861 0 0 0 6.4589844,26.318359 1.2738861,1.2738861 0 0 0 7.7324219,25.044922 1.2738861,1.2738861 0 0 0 6.4589844,23.769531 Z M 28.8125,27.625 c -0.577724,-0.0361 -1.318856,0.07954 -1.966797,0.306641 -0.326923,0.1145 -0.810186,0.360987 -1.582031,0.804687 -1.326499,0.7625 -2.01821,0.958116 -3.023438,0.853516 -0.405195,-0.0422 -0.64841,-0.09587 -2.05664,-0.447266 -2.444919,-0.6102 -3.468143,-0.788859 -5.041016,-0.880859 -1.46356,-0.0853 -3.105341,-0.03178 -4.173828,0.136719 -1.1639662,0.183399 -2.6717922,0.558093 -3.765625,0.933593 -1.4083567,0.4833 -2.3955122,1.065353 -2.6523438,1.564453 -0.27699,0.5383 -0.066454,0.918922 1.2949219,2.357422 1.2310205,1.3006 1.5752234,1.599219 1.8105469,1.574219 0.080002,-0.0082 0.079791,0.0055 0.03125,0.1875 -0.028676,0.1073 -0.036822,0.219953 -0.019531,0.251953 0.03669,0.0683 0.4198114,0.185847 0.6035156,0.185547 0.066,-2e-4 0.7085637,-0.120578 1.4277344,-0.267578 0.719171,-0.147 1.560773,-0.311188 1.86914,-0.367188 l 0.560547,-0.101562 -0.02148,0.181641 c -0.0388,0.321199 -0.331444,1.07774 -0.576172,1.49414 -0.120024,0.2042 -0.240168,0.378906 -0.267578,0.378906 -0.19041,0.0243 -0.814807,0.21386 -0.841797,0.25586 -0.01826,0.0285 0.0024,0.186762 0.04687,0.351562 0.06199,0.2303 0.06825,0.317047 0.02734,0.373047 -0.08961,0.1227 -0.07185,0.228366 0.06445,0.384766 0.38394,0.4404 1.133623,0.855897 2.646484,1.466797 1.223387,0.4941 1.955026,0.741625 2.634766,0.890625 0.229967,0.0522 0.421875,0.09352 0.421875,0.103515 8.5e-4,0.0061 0.0087,0.153372 0.01758,0.326172 0.04289,0.8132 0.319915,1.542863 0.798828,2.101563 0.366312,0.4275 0.998644,0.897393 1.673828,1.246093 0.73798,0.3811 1.233928,0.412397 1.480469,0.0918 0.09957,-0.1295 0.295547,-0.611409 0.5,-1.224609 0.177252,-0.5319 0.324659,-0.807122 0.626953,-1.169922 0.33017,-0.3962 0.369431,-0.514613 0.22461,-0.695312 -0.03248,-0.0405 -0.02319,-0.06148 0.07031,-0.146485 0.0978,-0.0887 0.199734,-0.107734 0.962891,-0.177734 1.309377,-0.1204 1.761836,-0.06784 3.003906,0.351562 0.491101,0.1658 0.657155,0.234063 0.703125,0.289063 0.0331,0.0396 0.146129,0.26204 0.25,0.49414 0.413546,0.9242 0.644328,1.159579 0.939453,0.955078 0.08709,-0.0604 0.135096,-0.154615 0.371094,-0.728515 0.222925,-0.5423 0.288368,-0.669703 0.361328,-0.720703 0.141869,-0.0983 1.052392,-0.302938 1.501953,-0.335938 1.12057,-0.0833 2.092897,0.295325 2.773438,1.078125 0.344804,0.3967 0.527587,0.753294 1.207031,2.371094 0.683113,1.6266 0.933697,2.124566 1.236328,2.447266 0.179403,0.1911 0.302458,0.230625 0.449219,0.140625 0.09889,-0.0606 0.128326,-0.111125 0.261718,-0.453125 0.153719,-0.3944 0.191191,-0.566197 0.359375,-1.654297 0.148617,-0.9614 0.237802,-1.277144 0.617188,-2.214844 0.29951,-0.7402 0.365965,-0.879097 0.554687,-1.154297 0.68227,-0.9951 1.027352,-1.246897 3.296875,-2.404297 1.011764,-0.516 1.563871,-0.884934 2.140625,-1.427734 0.443024,-0.4169 0.653389,-0.691222 0.800782,-1.044922 0.11804,-0.2836 0.127267,-0.324841 0.08594,-0.431641 -0.09206,-0.2384 -0.387732,-0.311765 -1.042969,-0.259765 -0.843032,0.0666 -1.756395,0.2766 -4.322265,1 -2.039639,0.5751 -2.625102,0.703765 -3.464844,0.759765 -0.838435,0.0556 -1.617202,-0.07985 -2.494141,-0.435547 -1.23781,-0.501899 -2.177397,-1.358525 -2.896484,-2.640624 -0.708037,-1.262401 -0.821501,-2.229525 -0.396484,-3.390626 0.300016,-0.819899 0.594937,-1.247493 1.332031,-1.933593 C 30.70401,29.181072 30.802745,28.945 30.673823,28.5918 30.501047,28.118397 29.651652,27.677 28.8125,27.625 Z" transform="translate(0,1004.3622)"/>
</g>
<path style="fill:#333333;stroke:none" d="m 89.641602,3e-6 c -1.235761,0 -2.21299,0.288724 -2.925781,0.86914 -0.707681,0.5804 -1.064453,1.380636 -1.064453,2.384766 0,0.866942 0.258406,1.551578 0.77539,2.042969 0.51691,0.49132 1.34437,0.847615 2.482422,1.074218 l 0.925781,0.179688 c 0.766943,0.154385 1.311865,0.386888 1.636719,0.6875 0.329956,0.300842 0.496094,0.714813 0.496094,1.255859 0,0.619112 -0.228229,1.08573 -0.6875,1.417969 -0.459351,0.332296 -1.11599,0.501953 -1.976563,0.501953 -0.566281,0 -1.143229,-0.08754 -1.730468,-0.261719 -0.5874,-0.174227 -1.189029,-0.43307 -1.802735,-0.777343 l -0.07422,-0.04102 0,1.683594 0.0332,0.01172 c 0.643692,0.236355 1.265979,0.414298 1.865234,0.535156 0.604248,0.120849 1.17391,0.181641 1.708984,0.18164 1.415092,0 2.493277,-0.280636 3.232422,-0.851562 0.744165,-0.570867 1.117188,-1.414797 1.117188,-2.513673 0,-0.922123 -0.274917,-1.663589 -0.826172,-2.214844 -0.546338,-0.55655 -1.390327,-0.939543 -2.529297,-1.15625 L 89.379878,4.820311 C 88.551542,4.665622 87.991316,4.462004 87.704097,4.222655 87.420482,3.977497 87.278316,3.619093 87.278316,3.132811 c 0,-0.578189 0.215209,-1.013966 0.648437,-1.326172 0.439344,-0.312422 1.06616,-0.472656 1.886719,-0.472656 0.471429,0 0.961211,0.06682 1.46875,0.201172 0.507626,0.134372 1.048954,0.338715 1.623047,0.613281 l 0.07227,0.03516 0,-1.597657 -0.03516,-0.01172 C 92.368816,0.383032 91.807773,0.240226 91.258786,0.144531 90.709773,0.048831 90.170902,0 89.641598,0 Z m 51.468748,0 c -1.23576,0 -2.21299,0.288724 -2.92578,0.86914 -0.70768,0.5804 -1.06445,1.380636 -1.06445,2.384766 0,0.866942 0.2584,1.551578 0.77539,2.042969 0.51691,0.49132 1.34438,0.847615 2.48242,1.074218 l 0.92578,0.179688 c 0.76694,0.154385 1.31186,0.386888 1.63672,0.6875 0.32996,0.300842 0.49609,0.714813 0.49609,1.255859 0,0.619112 -0.22627,1.08573 -0.68554,1.417969 -0.45935,0.332296 -1.11794,0.501953 -1.97852,0.501953 -0.56627,0 -1.14322,-0.08754 -1.73047,-0.261719 -0.5874,-0.174227 -1.18707,-0.43307 -1.80078,-0.777343 l -0.0762,-0.04102 0,1.683594 0.0332,0.01172 c 0.64369,0.236355 1.26598,0.414298 1.86524,0.535156 0.60425,0.120849 1.17391,0.181641 1.70898,0.18164 1.41509,0 2.49328,-0.280636 3.23242,-0.851562 0.74417,-0.570866 1.11719,-1.414796 1.11719,-2.513672 0,-0.922123 -0.27491,-1.663589 -0.82617,-2.214844 -0.54634,-0.55655 -1.39033,-0.939543 -2.5293,-1.15625 L 140.8486,4.820311 c -0.82834,-0.154689 -1.38856,-0.358308 -1.67578,-0.597656 -0.28361,-0.245159 -0.42578,-0.603562 -0.42578,-1.089844 0,-0.57819 0.21521,-1.013966 0.64844,-1.326172 0.43935,-0.312422 1.06812,-0.472656 1.88867,-0.472656 0.47143,0 0.95926,0.06682 1.4668,0.201172 0.50763,0.134371 1.04896,0.338715 1.62304,0.613281 l 0.0723,0.03516 0,-1.597657 -0.0352,-0.01172 C 143.83754,0.383031 143.27649,0.240226 142.7275,0.144531 142.17848,0.048831 141.63962,0 141.11031,0 Z m 17.03907,0 c -1.70939,0 -3.0635,0.526979 -4.05079,1.580078 -0.98731,1.04807 -1.47851,2.48343 -1.47851,4.296875 0,1.808457 0.4913,3.243852 1.47851,4.296875 0.98731,1.048065 2.34145,1.572266 4.05079,1.572265 0.66616,0 1.2981,-0.08952 1.89453,-0.271484 0.60136,-0.181926 1.16979,-0.454766 1.70507,-0.818359 l 0.0234,-0.01563 0,-1.728516 -0.084,0.07813 c -0.50735,0.472526 -1.04972,0.825505 -1.625,1.058594 -0.57031,0.23308 -1.1767,0.349609 -1.82227,0.349609 -1.27298,0 -2.2387,-0.38605 -2.91015,-1.15625 -0.67153,-0.775212 -1.00977,-1.894298 -1.00977,-3.365234 0,-1.475974 0.33839,-2.595129 1.00977,-3.365234 0.6715,-0.775191 1.63723,-1.16211 2.91015,-1.16211 0.64557,0 1.25196,0.116529 1.82227,0.34961 0.57528,0.233089 1.11765,0.584115 1.625,1.05664 l 0.084,0.07813 0,-1.742187 -0.0234,-0.01563 C 161.22358,0.717454 160.66103,0.45034 160.05957,0.27344 159.46307,0.091457 158.82554,3e-6 158.14942,3e-6 Z M 1.465821,0.203128 l 0,0.05078 0,11.275391 1.5742187,0 0,-9.634766 2.8105469,7.476562 1.5957031,0 2.8085933,-7.470703 0,9.628907 1.582032,0 0,-11.326172 -2.3476569,0 -2.8457028,7.546875 -2.8300781,-7.546875 -2.3476562,0 z m 22.017578,0 -0.01172,0.0332 -4.310547,11.292969 1.708985,0 1.021484,-2.88086 4.990235,0 1.021484,2.88086 1.6875,0 -4.316406,-11.326172 -1.791016,0 z m 13.460938,0 0,11.326172 1.61914,0 0,-4.744141 1.603516,0 c 0.594666,0 1.057888,0.121696 1.392578,0.359375 0.338003,0.236602 0.69731,0.728395 1.066406,1.476562 l 1.451172,2.908204 1.742188,0 -1.576172,-3.140625 C 43.931155,7.75459 43.618505,7.256195 43.303711,6.890628 43.014652,6.54944 42.712075,6.33919 42.399415,6.2168 42.99156,6.029225 43.471064,5.728978 43.788087,5.275393 c 0.337712,-0.475867 0.503906,-1.074531 0.503906,-1.789062 0,-1.092372 -0.320645,-1.919739 -0.964844,-2.466797 -0.644281,-0.547128 -1.61419,-0.816406 -2.904297,-0.816406 l -3.478515,0 z m 16.552734,0 0,0.05078 0,11.275391 1.617187,0 0,-5.337891 5.320313,5.337891 2.140625,0 -6.017578,-6.041016 5.625,-5.285156 -2.09961,0 -4.96875,4.679687 0,-4.679687 -1.617187,0 z m 15.355469,0 0,0.05078 0,7.007812 c 0,1.471802 0.362594,2.591046 1.095703,3.34961 0.738117,0.75848 1.826659,1.134766 3.253906,1.134765 1.421533,0 2.505197,-0.376994 3.238281,-1.134765 0.738165,-0.758528 1.105469,-1.877751 1.105469,-3.34961 l 0,-7.058593 -1.626953,0 0,6.86914 c 0,1.196903 -0.218251,2.053317 -0.642578,2.570313 -0.424418,0.512229 -1.110859,0.771484 -2.074219,0.771484 -0.967653,0 -1.655638,-0.260132 -2.080078,-0.771484 C 70.697744,9.125584 70.47754,8.26917 70.47754,7.072267 l 0,-6.86914 -1.625,0 z m 43.69141,0 0,0.05078 0,11.275391 1.61914,0 0,-5.361329 4.45117,0 0,-1.378906 -4.45117,0 0,-3.207031 4.93164,0 0,-1.378906 -6.55078,0 z m 14.6875,0 0,0.05078 0,11.275391 1.61718,0 0,-11.326172 -1.61718,0 z m 42.64648,0 0,0.05078 0,11.275391 1.61914,0 0,-5.345704 5.41797,0 0,5.345704 1.61914,0 0,-11.326172 -1.61914,0 0,4.601562 -5.41797,0 0,-4.601562 -1.61914,0 z m -131.314453,1.349609 1.859375,0 c 0.724142,0 1.262314,0.165393 1.621094,0.490235 0.363604,0.319971 0.546875,0.796294 0.546875,1.443359 0,0.647065 -0.182791,1.128882 -0.546875,1.458984 -0.35878,0.324841 -0.896952,0.492188 -1.621094,0.492188 l -1.859375,0 0,-3.884766 z m -14.1875,0.341797 1.996094,5.390625 -3.984375,0 1.988281,-5.390625 z"/>
</svg>
