<?xml version="1.0" encoding="UTF-8" standalone="no"?>
<svg
xmlns:svg="http://www.w3.org/2000/svg"
xmlns="http://www.w3.org/2000/svg"
width="48"
height="48"
version="1.1">
<g transform="translate(0,-1004.3622)">
<path style="fill:#333333;fill-opacity:1;fill-rule:nonzero;stroke:none"
d="M 22.273438 0.66210938 A 4.5990644 4.5990644 0 0 0 17.673828 5.2617188 A 4.5990644 4.5990644 0 0 0 22.273438 9.8613281 A 4.5990644 4.5990644 0 0 0 26.873047 5.2617188 A 4.5990644 4.5990644 0 0 0 22.273438 0.66210938 z M 11.847656 4.4160156 A 1.1971985 1.1971985 0 0 0 10.650391 5.6132812 A 1.1971985 1.1971985 0 0 0 11.847656 6.8105469 A 1.1971985 1.1971985 0 0 0 13.044922 5.6132812 A 1.1971985 1.1971985 0 0 0 11.847656 4.4160156 z M 14.330078 8.0859375 A 3.2487876 3.2487876 0 0 0 11.082031 11.335938 A 3.2487876 3.2487876 0 0 0 14.330078 14.583984 A 3.2487876 3.2487876 0 0 0 17.580078 11.335938 A 3.2487876 3.2487876 0 0 0 14.330078 8.0859375 z M 8.0683594 13.269531 A 1.7370902 1.7370902 0 0 0 6.3300781 15.005859 A 1.7370902 1.7370902 0 0 0 8.0683594 16.744141 A 1.7370902 1.7370902 0 0 0 9.8046875 15.005859 A 1.7370902 1.7370902 0 0 0 8.0683594 13.269531 z M 10.587891 18.525391 A 2.115562 2.115562 0 0 0 8.4726562 20.640625 A 2.115562 2.115562 0 0 0 10.587891 22.757812 A 2.115562 2.115562 0 0 0 12.705078 20.640625 A 2.115562 2.115562 0 0 0 10.587891 18.525391 z M 6.4589844 23.769531 A 1.2738861 1.2738861 0 0 0 5.1855469 25.044922 A 1.2738861 1.2738861 0 0 0 6.4589844 26.318359 A 1.2738861 1.2738861 0 0 0 7.7324219 25.044922 A 1.2738861 1.2738861 0 0 0 6.4589844 23.769531 z M 28.8125 27.625 C 28.234776 27.5889 27.493644 27.704541 26.845703 27.931641 C 26.51878 28.046141 26.035517 28.292628 25.263672 28.736328 C 23.937173 29.498828 23.245462 29.694444 22.240234 29.589844 C 21.835039 29.547644 21.591824 29.493978 20.183594 29.142578 C 17.738675 28.532378 16.715451 28.353719 15.142578 28.261719 C 13.679018 28.176419 12.037237 28.229938 10.96875 28.398438 C 9.8047838 28.581837 8.2969578 28.956531 7.203125 29.332031 C 5.7947683 29.815331 4.8076128 30.397384 4.5507812 30.896484 C 4.2737912 31.434784 4.4843268 31.815406 5.8457031 33.253906 C 7.0767236 34.554506 7.4209265 34.853125 7.65625 34.828125 C 7.736252 34.819925 7.736041 34.833625 7.6875 35.015625 C 7.658824 35.122925 7.6506777 35.235578 7.6679688 35.267578 C 7.7046589 35.335878 8.0877802 35.453425 8.2714844 35.453125 C 8.3374846 35.452925 8.9800481 35.332547 9.6992188 35.185547 C 10.41839 35.038547 11.259992 34.874359 11.568359 34.818359 L 12.128906 34.716797 L 12.107422 34.898438 C 12.068623 35.219637 11.775978 35.976178 11.53125 36.392578 C 11.411226 36.596778 11.291082 36.771484 11.263672 36.771484 C 11.073262 36.795784 10.448865 36.985344 10.421875 37.027344 C 10.403615 37.055844 10.4243 37.214106 10.46875 37.378906 C 10.53074 37.609206 10.537004 37.695953 10.496094 37.751953 C 10.406481 37.874653 10.424245 37.980319 10.560547 38.136719 C 10.944487 38.577119 11.69417 38.992616 13.207031 39.603516 C 14.430418 40.097616 15.162057 40.345141 15.841797 40.494141 C 16.071764 40.546341 16.263672 40.587656 16.263672 40.597656 C 16.264522 40.603756 16.27235 40.751028 16.28125 40.923828 C 16.324139 41.737028 16.601165 42.466691 17.080078 43.025391 C 17.44639 43.452891 18.078722 43.922784 18.753906 44.271484 C 19.491886 44.652584 19.987834 44.683881 20.234375 44.363281 C 20.333945 44.233781 20.529922 43.751872 20.734375 43.138672 C 20.911627 42.606772 21.059034 42.33155 21.361328 41.96875 C 21.691498 41.57255 21.730759 41.454137 21.585938 41.273438 C 21.55346 41.232937 21.56275 41.211953 21.65625 41.126953 C 21.754049 41.038253 21.855984 41.019219 22.619141 40.949219 C 23.928518 40.828819 24.380977 40.881381 25.623047 41.300781 C 26.114148 41.466581 26.280202 41.534844 26.326172 41.589844 C 26.359277 41.629444 26.472301 41.851884 26.576172 42.083984 C 26.989718 43.008184 27.2205 43.243563 27.515625 43.039062 C 27.602711 42.978662 27.650721 42.884447 27.886719 42.310547 C 28.109644 41.768247 28.175087 41.640844 28.248047 41.589844 C 28.389916 41.491544 29.300439 41.286906 29.75 41.253906 C 30.87057 41.170606 31.842897 41.549231 32.523438 42.332031 C 32.868242 42.728731 33.051025 43.085325 33.730469 44.703125 C 34.413582 46.329725 34.664166 46.827691 34.966797 47.150391 C 35.1462 47.341491 35.269255 47.381016 35.416016 47.291016 C 35.514911 47.230416 35.544342 47.179891 35.677734 46.837891 C 35.831453 46.443491 35.868925 46.271694 36.037109 45.183594 C 36.185726 44.222194 36.274911 43.90645 36.654297 42.96875 C 36.953807 42.22855 37.020262 42.089653 37.208984 41.814453 C 37.891254 40.819353 38.236336 40.567556 40.505859 39.410156 C 41.517623 38.894156 42.06973 38.525222 42.646484 37.982422 C 43.089508 37.565522 43.299873 37.2912 43.447266 36.9375 C 43.565306 36.6539 43.574533 36.612659 43.533203 36.505859 C 43.44114 36.267459 43.145471 36.194094 42.490234 36.246094 C 41.647202 36.312694 40.733839 36.522694 38.167969 37.246094 C 36.12833 37.821194 35.542867 37.949859 34.703125 38.005859 C 33.86469 38.061459 33.085923 37.926013 32.208984 37.570312 C 30.971174 37.068413 30.031587 36.211787 29.3125 34.929688 C 28.604463 33.667287 28.490999 32.700163 28.916016 31.539062 C 29.216032 30.719163 29.510953 30.291569 30.248047 29.605469 C 30.704015 29.181069 30.80275 28.944997 30.673828 28.591797 C 30.501047 28.118397 29.651652 27.677 28.8125 27.625 z "
transform="translate(0,1004.3622)"/>
</g>
</svg>
