<svg xmlns="http://www.w3.org/2000/svg" width="192" height="192"><g transform="translate(0 -860.362)"><circle r="88" cy="958.362" cx="96" style="fill:#a6c45f;fill-opacity:1;stroke:none;stroke-width:4;stroke-linecap:butt;stroke-linejoin:miter;stroke-miterlimit:4;stroke-dasharray:none;stroke-opacity:1"/><circle style="fill:#b6d46f;fill-opacity:1;stroke:none;stroke-width:4;stroke-linecap:butt;stroke-linejoin:miter;stroke-miterlimit:4;stroke-dasharray:none;stroke-opacity:1" cx="96" cy="956.362" r="88"/><path style="color:#000;font-style:normal;font-variant:normal;font-weight:400;font-stretch:normal;font-size:medium;line-height:normal;font-family:sans-serif;text-indent:0;text-align:start;text-decoration:none;text-decoration-line:none;text-decoration-style:solid;text-decoration-color:#000;letter-spacing:normal;word-spacing:normal;text-transform:none;direction:ltr;block-progression:tb;writing-mode:lr-tb;baseline-shift:baseline;text-anchor:start;white-space:normal;clip-rule:nonzero;display:inline;overflow:visible;visibility:visible;opacity:1;isolation:auto;mix-blend-mode:normal;color-interpolation:sRGB;color-interpolation-filters:linearRGB;solid-color:#000;solid-opacity:1;fill:#000;fill-opacity:.1254902;fill-rule:nonzero;stroke:none;stroke-width:8.60725021;stroke-linecap:butt;stroke-linejoin:miter;stroke-miterlimit:4;stroke-dasharray:none;stroke-dashoffset:0;stroke-opacity:1;color-rendering:auto;image-rendering:auto;shape-rendering:auto;text-rendering:auto;enable-background:accumulate" d="M98.02 32.459c-16.746 0-33.492 6.382-46.258 19.148-25.533 25.534-25.533 66.985 0 92.518l39.644 39.645A88 88 0 0 0 96 184a88 88 0 0 0 88-88 88 88 0 0 0-.172-4.842l-39.55-39.55C131.51 38.84 114.764 32.458 98.02 32.458z" transform="translate(0 860.362)"/><circle r="64.838" cy="957.654" cx="97.284" style="fill:#fff;fill-opacity:1;stroke:none;stroke-width:4;stroke-linecap:butt;stroke-linejoin:miter;stroke-miterlimit:4;stroke-dasharray:none;stroke-opacity:1"/><circle style="fill:#000;fill-opacity:1;stroke:none;stroke-width:4;stroke-linecap:butt;stroke-linejoin:miter;stroke-miterlimit:4;stroke-dasharray:none;stroke-opacity:1" cx="95.437" cy="959.806" r="35.467"/><circle style="fill:#fff;fill-opacity:1;stroke:none;stroke-width:10;stroke-linecap:butt;stroke-linejoin:miter;stroke-miterlimit:4;stroke-dasharray:none;stroke-opacity:1" cx="119.392" cy="933.908" r="23.308"/></g></svg>