<svg height="192" width="192" xmlns="http://www.w3.org/2000/svg"><circle style="fill:#f9f9f9;fill-opacity:1;stroke:none;stroke-width:4;stroke-linecap:butt;stroke-linejoin:miter;stroke-miterlimit:4;stroke-dasharray:none;stroke-opacity:1" cx="-104" cy="955.362" r="0"/><circle r="88" cy="97" cx="96" style="fill:#ccc;fill-opacity:1;stroke:none;stroke-width:4;stroke-linecap:butt;stroke-linejoin:miter;stroke-miterlimit:4;stroke-dasharray:none;stroke-opacity:1"/><circle style="fill:#e8e8e8;fill-opacity:1;stroke:none;stroke-width:4;stroke-linecap:butt;stroke-linejoin:miter;stroke-miterlimit:4;stroke-dasharray:none;stroke-opacity:1" cx="96" cy="95" r="88"/><path d="M96 7C47.399 7 8 46.399 8 95s39.399 88 88 88V7Z" style="opacity:1;fill:#fff;fill-opacity:1;stroke:none;stroke-width:.80140841;stroke-linecap:butt;stroke-linejoin:miter;stroke-miterlimit:4;stroke-dasharray:none;stroke-dashoffset:0;stroke-opacity:1"/><path style="fill:#000;fill-opacity:.03921569;stroke:none;stroke-width:1.5;stroke-linecap:butt;stroke-linejoin:round;stroke-miterlimit:4;stroke-dasharray:none;stroke-opacity:1" d="m95.98 65.395-.003.002-1.506 2.543-17.444 29.707 14.243 13.212-.104 1.448a9.656 9.656 0 0 0-1.955 1.511c-5.594 1.179-10.868 3.519-15.731 5.643-3.603 1.574-6.912 3.845-9.806 5.588-2.894 1.743-5.369 2.787-6.723 2.633-7.742-.886-15.745-8.405-17.09-9.774a5.315 5.315 0 0 0-4.025-1.859c-2.914 0-5.315 2.395-5.315 5.308 0 1.76.884 3.323 2.219 4.293l57.039 57.039c2.07.177 4.144.281 6.221.311 33.821-.047 64.622-19.473 79.236-49.973l-14.785-14.785c-.968-1.328-2.522-2.208-4.275-2.209h-.01c-1.06 0-2.091.335-2.967.93-.313.185-.612.4-.863.678-.014.015-.93.927-2.344 2.15L95.98 65.395Z"/><path d="m95.973 65.346-1.504 2.546-17.447 29.714 15.057 1.811-1 14.016c-.102-.009-.173.046-.279.035l-.007-.001h-.014c-6.182 1.036-11.988 3.635-17.304 5.957-3.605 1.574-6.915 3.845-9.81 5.589-2.894 1.743-5.371 2.789-6.725 2.634-7.744-.886-15.749-8.406-17.093-9.775l.115.127a5.315 5.315 0 0 0-4.139-1.987c-2.914 0-5.316 2.395-5.316 5.309 0 2.915 2.402 5.317 5.316 5.317.788-.002 1.417-.52 2.117-.852 3.867 3.312 10.145 7.758 18.08 8.665.884.103 1.769.126 2.648.101 6.155-.157 12.093-2.991 18.005-5.575 4.795-2.094 9.593-4.078 14.03-5.064.706.392 2.517 1.527 5.208 1.62 2.805.093 4.557-1.164 5.303-1.627 4.444.985 9.259 2.973 14.064 5.072 6.757 2.951 13.576 6.274 20.646 5.465 8.044-.919 14.326-5.405 18.121-8.679.706.335 1.335.865 2.131.865l.007.001c2.913-.001 5.309-2.404 5.309-5.317 0-2.913-2.396-5.316-5.309-5.316l-.007-.001a5.303 5.303 0 0 0-2.968.933 3.642 3.642 0 0 0-.865.68c-.047.049-8.825 9.06-17.338 10.034-1.354.154-3.831-.904-6.726-2.648-2.894-1.743-6.204-4.008-9.809-5.582-5.318-2.323-11.12-4.921-17.304-5.956h-.027c-.097-.01-.18-.035-.273-.035l-.994-14.016 15.058-1.804-18.958-32.26Zm0 54.54c.032-.008.025-.007.028.043 0 .036.007.035-.026.043-.032.009-.025.007-.027-.036 0-.036-.008-.041.027-.043Z" style="color:#000;font-style:normal;font-variant:normal;font-weight:400;font-stretch:normal;font-size:medium;line-height:normal;font-family:sans-serif;text-indent:0;text-align:start;text-decoration:none;text-decoration-line:none;text-decoration-style:solid;text-decoration-color:#000;letter-spacing:normal;word-spacing:normal;text-transform:none;direction:ltr;block-progression:tb;writing-mode:lr-tb;baseline-shift:baseline;text-anchor:start;white-space:normal;clip-rule:nonzero;display:inline;overflow:visible;visibility:visible;opacity:1;isolation:auto;mix-blend-mode:normal;color-interpolation:sRGB;color-interpolation-filters:linearRGB;solid-color:#000;solid-opacity:1;fill:#666;fill-opacity:1;fill-rule:evenodd;stroke:none;stroke-width:1.00000012;stroke-linecap:round;stroke-linejoin:miter;stroke-miterlimit:4;stroke-dasharray:none;stroke-dashoffset:0;stroke-opacity:1;color-rendering:auto;image-rendering:auto;shape-rendering:auto;text-rendering:auto;enable-background:accumulate"/><g style="opacity:1"><path d="m70.618 911.965-2.944-2.944L56 920.694l-11.674-11.673-2.944 2.944 11.673 11.674-11.673 11.674 2.944 2.944L56 926.584l11.674 11.673 2.944-2.944-11.673-11.674z" style="color:#000;font-style:normal;font-variant:normal;font-weight:400;font-stretch:normal;font-size:medium;line-height:normal;font-family:sans-serif;font-variant-ligatures:normal;font-variant-position:normal;font-variant-caps:normal;font-variant-numeric:normal;font-variant-alternates:normal;font-variant-east-asian:normal;font-feature-settings:normal;font-variation-settings:normal;text-indent:0;text-align:start;text-decoration:none;text-decoration-line:none;text-decoration-style:solid;text-decoration-color:#000;letter-spacing:normal;word-spacing:normal;text-transform:none;writing-mode:lr-tb;direction:ltr;text-orientation:mixed;dominant-baseline:auto;baseline-shift:baseline;text-anchor:start;white-space:normal;shape-padding:0;shape-margin:0;inline-size:0;clip-rule:nonzero;display:inline;overflow:visible;visibility:visible;isolation:auto;mix-blend-mode:normal;color-interpolation:sRGB;color-interpolation-filters:linearRGB;solid-color:#000;solid-opacity:1;vector-effect:none;fill:#e8e8e8;fill-opacity:1;fill-rule:nonzero;stroke:none;stroke-width:4;stroke-linecap:butt;stroke-linejoin:miter;stroke-miterlimit:4;stroke-dasharray:none;stroke-dashoffset:0;stroke-opacity:1;filter-blend-mode:normal;filter-gaussianBlur-deviation:0;color-rendering:auto;image-rendering:auto;shape-rendering:auto;text-rendering:auto;enable-background:accumulate;stop-color:#000;stop-opacity:1" transform="translate(0 -860.362)"/><path d="m44.326 906.191-5.773 5.774 11.674 11.674-11.674 11.673 5.773 5.774L56 929.412l11.674 11.674 5.773-5.774-11.674-11.673 11.674-11.674-5.773-5.774L56 917.865Z" style="color:#000;font-style:normal;font-variant:normal;font-weight:400;font-stretch:normal;font-size:medium;line-height:normal;font-family:sans-serif;font-variant-ligatures:normal;font-variant-position:normal;font-variant-caps:normal;font-variant-numeric:normal;font-variant-alternates:normal;font-variant-east-asian:normal;font-feature-settings:normal;font-variation-settings:normal;text-indent:0;text-align:start;text-decoration:none;text-decoration-line:none;text-decoration-style:solid;text-decoration-color:#000;letter-spacing:normal;word-spacing:normal;text-transform:none;writing-mode:lr-tb;direction:ltr;text-orientation:mixed;dominant-baseline:auto;baseline-shift:baseline;text-anchor:start;white-space:normal;shape-padding:0;shape-margin:0;inline-size:0;clip-rule:nonzero;display:inline;overflow:visible;visibility:visible;isolation:auto;mix-blend-mode:normal;color-interpolation:sRGB;color-interpolation-filters:linearRGB;solid-color:#000;solid-opacity:1;vector-effect:none;fill:#e8e8e8;fill-opacity:1;fill-rule:nonzero;stroke:none;stroke-width:4;stroke-linecap:butt;stroke-linejoin:miter;stroke-miterlimit:4;stroke-dasharray:none;stroke-dashoffset:0;stroke-opacity:1;color-rendering:auto;image-rendering:auto;shape-rendering:auto;text-rendering:auto;enable-background:accumulate;stop-color:#000;stop-opacity:1" transform="translate(0 -860.362)"/></g><g style="opacity:1"><path d="m129.307 930.965-8.708-8.709-2.966 2.945 11.674 11.674 25.06-25.06-2.945-2.945z" style="color:#000;font-style:normal;font-variant:normal;font-weight:400;font-stretch:normal;font-size:medium;line-height:normal;font-family:sans-serif;font-variant-ligatures:normal;font-variant-position:normal;font-variant-caps:normal;font-variant-numeric:normal;font-variant-alternates:normal;font-variant-east-asian:normal;font-feature-settings:normal;font-variation-settings:normal;text-indent:0;text-align:start;text-decoration:none;text-decoration-line:none;text-decoration-style:solid;text-decoration-color:#000;letter-spacing:normal;word-spacing:normal;text-transform:none;writing-mode:lr-tb;direction:ltr;text-orientation:mixed;dominant-baseline:auto;baseline-shift:baseline;text-anchor:start;white-space:normal;shape-padding:0;shape-margin:0;inline-size:0;clip-rule:nonzero;display:inline;overflow:visible;visibility:visible;isolation:auto;mix-blend-mode:normal;color-interpolation:sRGB;color-interpolation-filters:linearRGB;solid-color:#000;solid-opacity:1;vector-effect:none;fill:#fff;fill-opacity:1;fill-rule:nonzero;stroke:none;stroke-width:4;stroke-linecap:butt;stroke-linejoin:miter;stroke-miterlimit:4;stroke-dasharray:none;stroke-dashoffset:0;stroke-opacity:1;filter-blend-mode:normal;filter-gaussianBlur-deviation:0;color-rendering:auto;image-rendering:auto;shape-rendering:auto;text-rendering:auto;enable-background:accumulate;stop-color:#000;stop-opacity:1" transform="translate(0 -860.362)"/><path d="m151.424 906.043-22.117 22.094-8.703-8.703-5.805 5.761 14.508 14.508 27.888-27.889z" style="color:#000;font-style:normal;font-variant:normal;font-weight:400;font-stretch:normal;font-size:medium;line-height:normal;font-family:sans-serif;font-variant-ligatures:normal;font-variant-position:normal;font-variant-caps:normal;font-variant-numeric:normal;font-variant-alternates:normal;font-variant-east-asian:normal;font-feature-settings:normal;font-variation-settings:normal;text-indent:0;text-align:start;text-decoration:none;text-decoration-line:none;text-decoration-style:solid;text-decoration-color:#000;letter-spacing:normal;word-spacing:normal;text-transform:none;writing-mode:lr-tb;direction:ltr;text-orientation:mixed;dominant-baseline:auto;baseline-shift:baseline;text-anchor:start;white-space:normal;shape-padding:0;shape-margin:0;inline-size:0;clip-rule:nonzero;display:inline;overflow:visible;visibility:visible;isolation:auto;mix-blend-mode:normal;color-interpolation:sRGB;color-interpolation-filters:linearRGB;solid-color:#000;solid-opacity:1;vector-effect:none;fill:#fff;fill-opacity:1;fill-rule:nonzero;stroke:none;stroke-width:4;stroke-linecap:butt;stroke-linejoin:miter;stroke-miterlimit:4;stroke-dasharray:none;stroke-dashoffset:0;stroke-opacity:1;color-rendering:auto;image-rendering:auto;shape-rendering:auto;text-rendering:auto;enable-background:accumulate;stop-color:#000;stop-opacity:1" transform="translate(0 -860.362)"/></g></svg>