<svg width="192" height="192" xmlns="http://www.w3.org/2000/svg" xmlns:xlink="http://www.w3.org/1999/xlink"><defs><linearGradient id="a"><stop offset="0" style="stop-color:#fff;stop-opacity:1"/><stop offset="1" style="stop-color:silver;stop-opacity:1"/></linearGradient><linearGradient id="c"><stop offset="0" style="stop-color:#6f9ed3;stop-opacity:1"/><stop offset="1" style="stop-color:#2a5688;stop-opacity:1"/></linearGradient><linearGradient id="d"><stop offset="0" style="stop-color:#616161;stop-opacity:0"/><stop offset="1" style="stop-color:#dbdbdb;stop-opacity:1"/></linearGradient><linearGradient id="b"><stop offset="0" style="stop-color:#404040;stop-opacity:1"/><stop offset="1" style="stop-color:#606060;stop-opacity:1"/></linearGradient><linearGradient id="e"><stop style="stop-color:#f9f9f9;stop-opacity:1" offset="0"/><stop style="stop-color:#dbdbdb;stop-opacity:1" offset="1"/></linearGradient><linearGradient id="g" gradientUnits="userSpaceOnUse" gradientTransform="rotate(-15.001 2133.957 4473.421) scale(.23524)" x1="5431.862" y1="-1144.565" x2="5431.862" y2="-1336.906" xlink:href="#b"/><linearGradient id="h" gradientUnits="userSpaceOnUse" x1="5532.759" y1="-1254.035" x2="5549.558" y2="-1287.254" gradientTransform="matrix(.28516 0 0 .28516 3961.145 -908.964)" xlink:href="#b"/><linearGradient id="i" gradientUnits="userSpaceOnUse" gradientTransform="rotate(-15.001 2581.363 8068.287) scale(.23524)" x1="9397.25" y1="-1208.603" x2="9293.63" y2="-1246.302" xlink:href="#c"/><linearGradient id="j" gradientUnits="userSpaceOnUse" gradientTransform="matrix(.23989 -.14307 .08213 .1377 -1318.482 1187.803)" x1="6333.566" y1="-1044.379" x2="6440.933" y2="-1259.911" xlink:href="#d"/><radialGradient id="f" gradientUnits="userSpaceOnUse" gradientTransform="matrix(.36814 0 0 .39377 -1255.92 576.94)" cx="3740.586" cy="-1353.151" r="337.119" xlink:href="#a"/><radialGradient id="k" gradientUnits="userSpaceOnUse" gradientTransform="matrix(.21162 0 0 .16295 -1083.324 281.727)" cx="5553.09" cy="-1280.22" r="21.022" xlink:href="#e"/></defs><path style="fill:#616161;fill-opacity:1;stroke:none" d="M43.794 164.34c-1.687 1.603-.066 6.133 1.377 5.484 20.453-8.384 40.854-12.657 62.589-16.452 12.954-2.484 26.303-4.213 38.44-9.622 20.254-11.132 7.566-16.051 2.16-13.205-18.685 5.07-84.346 27.249-104.566 33.795Z"/><path d="m23.863 129.806 3.661-9.179 47.981-7.918 16.343-27.195-13.789-13.959-48.674 13.042c-4.197 1.125-4.154-.761-4.25-2.025l69.458-19.25 4.72 45.995Z" style="fill:#4d4d4d;stroke:none"/><path d="M84.254 21.035a106.443 106.443 0 0 0-7.598 2.318c-27.802 9.614-46.645 34.197-53.83 61.715 14.963-4.012 25.392-6.764 40.34-10.832 3.646-1.029 7.55-2.265 11.266-.873 3.938 1.331 5.421 5.885 5.741 9.664.815 11.856-5.814 23.496-15.656 29.851-14.694 8.546-26.68 11.579-43.045 15.879 3.115 14.945 10.136 28.892 21.515 39.876 73.957-30.342 119.836-7.677 128.693-65.755 6.819-44.709-26.256-98.005-87.426-81.843Z" style="fill:url(#f);fill-opacity:1;stroke:none"/><path d="M24.427 79.768a101.504 101.504 0 0 0-1.538 5.283c14.926-4.002 25.352-6.754 40.277-10.815 3.646-1.029 7.55-2.265 11.266-.872 3.938 1.33 5.421 5.884 5.74 9.664.816 11.855-5.813 23.495-15.655 29.85-14.685 8.541-26.667 11.575-43.016 15.871.322 1.545.682 3.08 1.088 4.602 3.6-.956 7.029-1.866 10.373-2.756 1.045.997 3.553 1.255 6.254.531 2.717-.728 4.769-2.219 5.159-3.612 26.782-7.399 43.906-13.744 52.372-26.879 11.094-17.213 8.535-42.532-13.923-36.514L24.427 79.768Z" style="opacity:.5;fill:url(#g);fill-opacity:1;stroke:none"/><circle transform="rotate(-15 7933.71 20102.565)" style="fill:url(#h);fill-opacity:1;fill-rule:nonzero;stroke:none" cx="5541.304" cy="-1271.563" r="5.995"/><path style="opacity:.9;fill:url(#i);fill-opacity:1;stroke:none" d="M24.371 71.942c-7.579 16.64-10.642 35.292-8.07 53.004 40.484-5.824 65.055-8.793 77.465-23.853 13.025-15.802 13.434-41.246-9.573-37.887l-59.822 8.736Z"/><path style="fill:url(#j);fill-opacity:1;stroke:none" d="m66.604 151.073 48.49-25.029c14.807-8.831 23.421-1.646 35.152 4.913Z"/><circle style="fill:url(#k);fill-opacity:1;fill-rule:nonzero;stroke:none" cx="90.791" cy="75.942" r="4.086"/><path d="M103.869 128.192h31.227a2.317 2.317 0 0 1 2.317 2.317v41.096a2.317 2.317 0 0 1-2.317 2.317h-31.227a2.317 2.317 0 0 1-2.318-2.317v-41.096a2.317 2.317 0 0 1 2.318-2.317ZM143.048 128.192h31.227a2.317 2.317 0 0 1 2.318 2.317v41.096a2.317 2.317 0 0 1-2.318 2.317h-31.227a2.317 2.317 0 0 1-2.317-2.317v-41.096a2.317 2.317 0 0 1 2.317-2.317Z" style="fill:#202020;fill-opacity:1;fill-rule:nonzero;stroke:none"/><path d="M113.03 137.48h12.904a1.94 1.94 0 0 1 1.94 1.939v23.276a1.94 1.94 0 0 1-1.94 1.94H113.03a1.94 1.94 0 0 1-1.939-1.94v-23.276c0-1.071.868-1.939 1.939-1.939Z" style="fill:none;stroke:#fff;stroke-linecap:round;stroke-linejoin:round;stroke-miterlimit:4;stroke-dasharray:none;stroke-dashoffset:0;stroke-opacity:1;stroke-width:4px"/><path d="M161.889 164.635V137.48l-6.455 4.549" style="fill:none;stroke:#fff;stroke-linecap:round;stroke-linejoin:round;stroke-miterlimit:4;stroke-dasharray:none;stroke-opacity:1;stroke-width:4px"/></svg>