<svg width="192" height="192" xmlns="http://www.w3.org/2000/svg" xmlns:xlink="http://www.w3.org/1999/xlink"><defs><linearGradient id="a"><stop style="stop-color:#000;stop-opacity:1" offset="0"/><stop style="stop-color:#000;stop-opacity:0" offset="1"/></linearGradient><linearGradient id="b" gradientUnits="userSpaceOnUse" gradientTransform="matrix(1.14123 0 0 1.14123 -98.906 107.474)" x1="164.867" y1="360.617" x2="854.465" y2="360.617" xlink:href="#a"/></defs><text style="font-style:normal;font-weight:400;font-size:40px;line-height:125%;font-family:Sans;letter-spacing:0;word-spacing:0;fill:#000;fill-opacity:1;stroke:none;white-space:pre" x="5411.245" y="3362.231"/><text style="font-size:40px;font-style:normal;font-weight:400;line-height:125%;letter-spacing:0;word-spacing:0;fill:#000;fill-opacity:1;stroke:none;font-family:Sans;white-space:pre" x="4676.406" y="3368.037"/><text style="font-style:normal;font-weight:400;font-size:43.2258px;line-height:125%;font-family:Sans;letter-spacing:0;word-spacing:0;fill:#000;fill-opacity:1;stroke:none;white-space:pre" x="4851.342" y="4465.172"/><text style="font-style:normal;font-weight:400;font-size:54.1935px;line-height:125%;font-family:Sans;letter-spacing:0;word-spacing:0;fill:#000;fill-opacity:1;stroke:none;white-space:pre" x="6356.775" y="5429.857"/><text style="font-style:normal;font-weight:400;font-size:40px;line-height:125%;font-family:Sans;letter-spacing:0;word-spacing:0;fill:#000;fill-opacity:1;stroke:none;white-space:pre" x="6371.893" y="3164.574"/><g><path style="fill:#399ed7;fill-opacity:1;fill-rule:nonzero;stroke:none" d="M42 21c-11.634 0-21 9.366-21 21v428c0 11.634 9.366 21 21 21h428c11.634 0 21-9.366 21-21V42c0-11.634-9.366-21-21-21H42Z" transform="matrix(.37447 0 0 .37447 .136 .136)"/><path style="fill:#fff;fill-opacity:.25098039;fill-rule:nonzero;stroke:none" d="M21 655.362h94v94H21z" transform="matrix(.37447 0 0 .37447 .136 -202.212)"/><path style="fill:#fff;fill-opacity:.1254902;fill-rule:nonzero;stroke:none" d="M115 655.362h94v94h-94z" transform="matrix(.37447 0 0 .37447 .136 -202.212)"/><path style="fill:#fff;fill-opacity:0;fill-rule:nonzero;stroke:none" fill="none" d="M209 655.362h94v94h-94z" transform="matrix(.37447 0 0 .37447 .136 -202.212)"/><path style="fill:#fff;fill-opacity:.25098039;fill-rule:nonzero;stroke:none" d="M303 655.362h94v94h-94z" transform="matrix(.37447 0 0 .37447 .136 -202.212)"/><path style="fill:#fff;fill-opacity:0;fill-rule:nonzero;stroke:none" fill="none" d="M21 749.362h94v94H21z" transform="matrix(.37447 0 0 .37447 .136 -202.212)"/><path style="fill:#fff;fill-opacity:.25098039;fill-rule:nonzero;stroke:none" d="M115 749.362h94v94h-94z" transform="matrix(.37447 0 0 .37447 .136 -202.212)"/><path style="fill:#fff;fill-opacity:.37647059;fill-rule:nonzero;stroke:none" d="M209 749.362h94v94h-94z" transform="matrix(.37447 0 0 .37447 .136 -202.212)"/><path style="fill:#fff;fill-opacity:.1254902;fill-rule:nonzero;stroke:none" d="M303 749.362h94v94h-94z" transform="matrix(.37447 0 0 .37447 .136 -202.212)"/><path style="fill:#fff;fill-opacity:.25098039;fill-rule:nonzero;stroke:none" d="M21 843.362h94v94H21z" transform="matrix(.37447 0 0 .37447 .136 -202.212)"/><path style="fill:#fff;fill-opacity:.1254902;fill-rule:nonzero;stroke:none" d="M115 843.362h94v94h-94z" transform="matrix(.37447 0 0 .37447 .136 -202.212)"/><path style="fill:#fff;fill-opacity:.25098039;fill-rule:nonzero;stroke:none" d="M209 843.362h94v94h-94z" transform="matrix(.37447 0 0 .37447 .136 -202.212)"/><path style="fill:#fff;fill-opacity:.37647059;fill-rule:nonzero;stroke:none" d="M303 843.362h94v94h-94z" transform="matrix(.37447 0 0 .37447 .136 -202.212)"/><path d="M21 937.362v73c0 11.634 9.366 21 21 21h73v-94H21z" style="fill:#fff;fill-opacity:.1254902;fill-rule:nonzero;stroke:none" transform="matrix(.37447 0 0 .37447 .136 -202.212)"/><path style="fill:#fff;fill-opacity:.25098039;fill-rule:nonzero;stroke:none" d="M115 937.362h94v94h-94z" transform="matrix(.37447 0 0 .37447 .136 -202.212)"/><path style="fill:#fff;fill-opacity:.1254902;fill-rule:nonzero;stroke:none" d="M209 937.362h94v94h-94z" transform="matrix(.37447 0 0 .37447 .136 -202.212)"/><path style="fill:#fff;fill-opacity:.25098039;fill-rule:nonzero;stroke:none" d="M303 937.362h94v94h-94z" transform="matrix(.37447 0 0 .37447 .136 -202.212)"/><path style="fill:#fff;fill-opacity:.1254902;fill-rule:nonzero;stroke:none" d="M397 655.362h94v94h-94z" transform="matrix(.37447 0 0 .37447 .136 -202.212)"/><path style="fill:#fff;fill-opacity:0;fill-rule:nonzero;stroke:none" fill="none" d="M397 749.362h94v94h-94z" transform="matrix(.37447 0 0 .37447 .136 -202.212)"/><path style="fill:#fff;fill-opacity:.25098039;fill-rule:nonzero;stroke:none" d="M397 843.362h94v94h-94z" transform="matrix(.37447 0 0 .37447 .136 -202.212)"/><path d="M397 937.362v94h73c11.634 0 21-9.366 21-21v-73h-94z" style="fill:#fff;fill-opacity:.1254902;fill-rule:nonzero;stroke:none" transform="matrix(.37447 0 0 .37447 .136 -202.212)"/><path d="M42 561.362c-11.634 0-21 9.366-21 21v73h94v-94H42z" style="fill:#fff;fill-opacity:.37647059;fill-rule:nonzero;stroke:none" transform="matrix(.37447 0 0 .37447 .136 -202.212)"/><path style="fill:#fff;fill-opacity:.25098039;fill-rule:nonzero;stroke:none" d="M115 561.362h94v94h-94z" transform="matrix(.37447 0 0 .37447 .136 -202.212)"/><path style="fill:#fff;fill-opacity:.37647059;fill-rule:nonzero;stroke:none" d="M209 561.362h94v94h-94z" transform="matrix(.37447 0 0 .37447 .136 -202.212)"/><path style="fill:#fff;fill-opacity:.1254902;fill-rule:nonzero;stroke:none" d="M303 561.362h94v94h-94z" transform="matrix(.37447 0 0 .37447 .136 -202.212)"/><path d="M397 561.362v94h94v-73c0-11.634-9.366-21-21-21h-73z" style="fill:#fff;fill-opacity:.25098039;fill-rule:nonzero;stroke:none" transform="matrix(.37447 0 0 .37447 .136 -202.212)"/><path style="fill:#303030;fill-opacity:1;stroke:none;stroke-width:4;stroke-linecap:butt;stroke-linejoin:miter;stroke-miterlimit:4;stroke-dasharray:none;stroke-opacity:1" d="M491 61.346 21 161.732V470c0 11.634 9.366 21 21 21h428c11.634 0 21-9.366 21-21Z" transform="matrix(.37447 0 0 .37447 .136 .136)"/><path d="M406.709 172.982c-11.399 11.178-15.073 37.388-19.408 45.278-14.076-13.117-26.399-28.44-41.735-39.983-10.851-3.77-37.06-7.631-39.511 5.578-1.526 9.257 2.259 10.894 4.55 14.67 4.568 1.365 6.044 7.183 10.618 8.539-4.025 2.316-2.112 10.569-2.51 16.51 3.329 1.273 4.125 5.077 7.582 6.221 1.652 3.249 4.576 5.227 7.119 7.584 1.702 3.003 5.22 4.188 6.531 7.582-6.721 8.483-12.42-3.458-17.017-7.461-5.616-4.45-9.551-9.947-15.166-14.396-3.982-5.162-9.669-9.259-13.651-14.42-6.533-7.853-17.984-14.133-30.673-12.348-17.459-1.609-27.582 19.749-29.092 29.685-10.253-9.148-18.427-21.118-30.692-27.584-15.494-9.829-36.201 7.575-41.008 12.086-3.193-1.783-3.915-5.377-7.9-6.582-1.762-3.008-2.744-6.585-9.326-6.066-6.435-.082-14.267-1.996-13.701 7.098-1.997 3.407-2.307 16.858-5.606 13.121-2.77-1.751-4.385-5.018-7.306-6.569-2.161-2.988-4.716-5.457-7.532-7.584-2.595-2.651-4.02-6.837-9.224-6.066-5.478.654-16.815-2.981-10.891 6.01l18.494 58.099c3.871 2.359 6.183 6.852 10.133 9.1 2.619 4.082 6.473 6.47 9.418 10.103 3.115 3.17 6.559 5.886 9.266 9.614 3.87 2.358 6.182 6.85 10.133 9.099 2.617 4.08 6.47 6.471 9.416 10.102 3.113 3.171 6.558 5.886 9.263 9.613 2.266 2.507 11.437 7.213 1.998 7.33-2.551 2.073-2.577 14.389-.021 15.248 1.613 3.527 4.61 5.28 7.086 7.705 1.753 3.167 5.348 3.979 6.563 7.834 4.602.495 1.542 10.778 2.435 16.01v19.949c-5.959.69-14.687-1.388-18.898 1.051.766 5.203-2.062 13.999 2.566 15.34 1.703 3.002 5.221 4.191 6.533 7.584 3.249 1.651 5.226 4.574 7.582 7.119 3.005 1.701 4.189 5.22 7.582 6.531 1.653 3.248 4.575 5.226 7.119 7.582 1.702 3.003 5.221 4.191 6.532 7.584 3.249 1.652 5.228 4.573 7.584 7.118 3.003 1.701 4.189 5.22 7.582 6.533 1.652 3.249 4.575 5.225 7.119 7.582 1.701 3.003 5.22 4.188 6.531 7.582 3.249 1.651 5.225 4.575 7.582 7.117 3.001 1.704 4.19 5.221 7.584 6.531.38.748.832 1.422 1.326 2.055H470c11.634 0 21-9.366 21-21V245.453c-10.302-10.293-36.322-35.63-37.427-37.59-2.256-2.48-6.067-4.028-6.532-7.582-4.897-.766-3.935-5.038-8.396-6.064-1.404-3.155-4.16-5.503-7.356-7.584-1.139-3.149-4.949-4.699-6.531-7.582-3.946-1.502-2.72-6.098-9.222-6.069h-8.827Zm-83.973 35.6c.366.823-2.045.01 0 0Z" style="opacity:.3;fill:url(#b);fill-opacity:1;stroke:none" transform="matrix(.37447 0 0 .37447 .136 .136)"/><path style="fill:#fff;fill-opacity:1;stroke:none" d="M406.709 172.983c-6.031 8.704-10.557 17.395-13.535 26.022-2.939 8.589-4.399 17.292-4.399 26.148 0 8.895 1.46 17.643 4.399 26.232 2.94 8.551 7.466 17.246 13.535 26.064h13.032c-5.038-9.162-8.745-18.02-11.188-26.609-2.443-8.627-3.687-17.212-3.687-25.687 0-8.551 1.244-17.094 3.687-25.645 2.443-8.551 6.15-17.401 11.188-26.525h-13.032Z" transform="matrix(.37447 0 0 .37447 .136 .136)"/><path style="fill:#399ed7;fill-opacity:1;stroke:none" d="M328.643 174.952c-3.512 0-7.162.315-10.979.964a89.071 89.071 0 0 0-11.608 2.682v15.379c3.932-1.527 7.734-2.719 11.398-3.52 3.665-.802 7.06-1.173 10.267-1.173 4.199 0 7.473.887 9.763 2.681 2.329 1.756 3.478 4.207 3.478 7.375 0 3.016-1.149 5.361-3.478 7.04-2.29 1.642-5.564 2.473-9.763 2.473h-9.01v14.875h9.01c4.886.001 8.683 1.199 11.356 3.604 2.672 2.367 4.022 5.751 4.022 10.141 0 3.588-1.35 6.452-4.022 8.59-2.673 2.1-6.315 3.143-10.895 3.143-4.581 0-8.955-.467-13.116-1.383-4.161-.954-8.019-2.312-11.608-4.106v15.672a71.787 71.787 0 0 0 11.985 3.184 74.459 74.459 0 0 0 12.739 1.09c10.116 0 17.824-2.185 23.131-6.537 5.306-4.352 7.961-10.657 7.961-18.941 0-6.184-1.57-11.18-4.777-14.959-3.206-3.818-7.888-6.265-13.996-7.334 5.383-.992 9.545-3.078 12.446-6.285 2.901-3.245 4.358-7.41 4.358-12.487 0-6.91-2.546-12.327-7.585-16.259-5.039-3.932-12.068-5.909-21.077-5.909ZM267.044 196.198c-9.887 0-17.645 2.974-23.257 8.967-5.611 5.955-8.422 14.233-8.422 24.807 0 10.536 2.807 18.768 8.38 24.723 5.574 5.956 13.286 8.968 23.173 8.968 3.741 0 7.231-.417 10.476-1.257a34.73 34.73 0 0 0 9.135-3.688v-15.379c-2.519 2.215-5.221 3.838-8.045 4.945-2.825 1.069-5.849 1.634-9.094 1.634-5.458 0-9.673-1.718-12.613-5.154-2.939-3.436-4.399-8.379-4.399-14.792s1.46-11.36 4.399-14.834c2.94-3.474 7.155-5.196 12.613-5.196 3.131 0 6.15.573 9.052 1.718 2.939 1.107 5.644 2.72 8.087 4.819V201.1a42.398 42.398 0 0 0-9.596-3.687 40.079 40.079 0 0 0-9.889-1.215ZM89.246 197.874l20.407 64.113h20.659l20.365-64.113h-17.013l-13.703 50.033-13.702-50.033H89.246ZM190.988 209.314c4.276 0 7.504 1.145 9.68 3.436 2.214 2.252 3.36 5.587 3.436 10.015l-26.399.042c.42-4.314 1.774-7.603 4.065-9.932 2.29-2.366 5.363-3.561 9.218-3.561Zm-1.718-12.99c-8.607.355-15.499 3.403-20.616 9.093-5.459 6.069-8.172 14.347-8.172 24.807 0 10.803 2.815 19.084 8.465 24.849 5.688 5.726 13.913 8.59 24.639 8.59 4.505 0 8.777-.413 12.823-1.215a63.728 63.728 0 0 0 11.901-3.604v-15.42c-4.085 2.404-7.992 4.172-11.733 5.279-3.741 1.107-7.543 1.677-11.398 1.677-5.841 0-10.219-1.248-13.158-3.73-2.94-2.481-4.446-6.233-4.484-11.272h43.454v-6.83c0-10.231-2.609-18.148-7.877-23.76-5.23-5.649-12.62-8.464-22.126-8.464-.589 0-1.144-.024-1.718 0Z" transform="matrix(.37447 0 0 .37447 .136 .136)"/><path style="fill:#7ba212;fill-opacity:1;stroke:none" d="m185.426 323.083-17.683 4.232v15.253l17.6-4.358v55.481h-18.899v14.876h54.224v-14.876h-18.899v-70.608h-16.343ZM251.928 387.573v20.994h19.066v-20.994h-19.066Z" transform="matrix(.37447 0 0 .37447 .136 .136)"/><path style="fill:#fff;fill-opacity:1;stroke:#fff;stroke-width:.91005695" d="M317.209 292.933h13.281v152.972h-13.281z" transform="matrix(.37447 0 0 .37447 .136 .136)"/></g></svg>