<svg height="192" width="192" xmlns="http://www.w3.org/2000/svg"><circle r="88" cy="96" cx="96" style="fill:#222;fill-opacity:1"/><path d="m96.184 91.469-5.042 2.171a3.89 3.89 0 0 1-5.112-2.034l-7.382-17.145-17.146 7.383a3.89 3.89 0 0 1-5.112-2.034l-2.171-5.043a3.89 3.89 0 0 1 2.035-5.111l17.147-7.383-7.383-17.147a3.89 3.89 0 0 1 2.034-5.111l5.042-2.171a3.89 3.89 0 0 1 5.112 2.034l7.383 17.147 17.145-7.382a3.89 3.89 0 0 1 5.111 2.035l2.171 5.042a3.89 3.89 0 0 1-2.035 5.112l-17.144 7.381 7.382 17.145a3.89 3.89 0 0 1-2.035 5.111Z" style="fill:#fff;stroke-width:8.47975;vector-effect:non-scaling-stroke"/><path style="stroke:#fff;fill:none;stroke-linecap:round;stroke-linejoin:round;stroke-width:6px;stroke-dasharray:10px" d="M71.502 95.715c-5.839 13.698-17.11 40.505-.897 52.026 31.417 22.329 58.438-55.203 86.838-32.436"/></svg>