<svg width="192" height="192" xmlns="http://www.w3.org/2000/svg"><g transform="matrix(.18802 0 0 .18802 -.268 -.265)"><rect ry="54.351" rx="54.351" y="43.956" x="170.254" height="936.087" width="683.492" style="opacity:1;fill:#0090d0;fill-opacity:1;stroke:none;stroke-width:200;stroke-linecap:butt;stroke-linejoin:miter;stroke-miterlimit:4;stroke-dasharray:none;stroke-dashoffset:0;stroke-opacity:1"/><path style="color:#000;font-style:normal;font-variant:normal;font-weight:400;font-stretch:normal;font-size:medium;line-height:normal;font-family:sans-serif;text-indent:0;text-align:start;text-decoration:none;text-decoration-line:none;text-decoration-style:solid;text-decoration-color:#000;letter-spacing:normal;word-spacing:normal;text-transform:none;direction:ltr;block-progression:tb;writing-mode:lr-tb;baseline-shift:baseline;text-anchor:start;white-space:normal;clip-rule:nonzero;display:inline;overflow:visible;visibility:visible;opacity:1;isolation:auto;mix-blend-mode:normal;color-interpolation:sRGB;color-interpolation-filters:linearRGB;solid-color:#000;solid-opacity:1;fill:#0060a0;fill-opacity:1;fill-rule:evenodd;stroke:none;stroke-width:200;stroke-linecap:butt;stroke-linejoin:miter;stroke-miterlimit:4;stroke-dasharray:none;stroke-dashoffset:0;stroke-opacity:1;color-rendering:auto;image-rendering:auto;shape-rendering:auto;text-rendering:auto;enable-background:accumulate" d="M852.828 88.357c-28.786 8.128-59.631 18.961-93.644 29.176-66.228 19.891-223.282 56.819-302.495 56.819-130.432 0-208.013-34.941-286.435-54.36v101.332c78.422 19.419 156.003 54.36 286.435 54.36 79.213 0 236.267-36.928 302.495-56.819 34.374-10.324 65.514-21.278 94.562-29.433V98.307a54.97 54.97 0 0 0-.918-9.95Z"/><path style="color:#000;font-style:normal;font-variant:normal;font-weight:400;font-stretch:normal;font-size:medium;line-height:normal;font-family:sans-serif;text-indent:0;text-align:start;text-decoration:none;text-decoration-line:none;text-decoration-style:solid;text-decoration-color:#000;letter-spacing:normal;word-spacing:normal;text-transform:none;direction:ltr;block-progression:tb;writing-mode:lr-tb;baseline-shift:baseline;text-anchor:start;white-space:normal;clip-rule:nonzero;display:inline;overflow:visible;visibility:visible;opacity:1;isolation:auto;mix-blend-mode:normal;color-interpolation:sRGB;color-interpolation-filters:linearRGB;solid-color:#000;solid-opacity:1;fill:#00b0f0;fill-opacity:1;fill-rule:evenodd;stroke:none;stroke-width:200;stroke-linecap:butt;stroke-linejoin:miter;stroke-miterlimit:4;stroke-dasharray:none;stroke-dashoffset:0;stroke-opacity:1;color-rendering:auto;image-rendering:auto;shape-rendering:auto;text-rendering:auto;enable-background:accumulate" d="M853.746 189.432c-29.048 8.155-60.188 19.109-94.562 29.433-66.228 19.891-223.282 56.819-302.495 56.819-130.432 0-208.013-34.941-286.435-54.36v129.199c78.422 19.419 156.003 54.36 286.435 54.36 79.213 0 236.267-36.927 302.495-56.819 34.374-10.324 65.514-21.278 94.562-29.433Z"/><path style="color:#000;font-style:normal;font-variant:normal;font-weight:400;font-stretch:normal;font-size:medium;line-height:normal;font-family:sans-serif;text-indent:0;text-align:start;text-decoration:none;text-decoration-line:none;text-decoration-style:solid;text-decoration-color:#000;letter-spacing:normal;word-spacing:normal;text-transform:none;direction:ltr;block-progression:tb;writing-mode:lr-tb;baseline-shift:baseline;text-anchor:start;white-space:normal;clip-rule:nonzero;display:inline;overflow:visible;visibility:visible;opacity:1;isolation:auto;mix-blend-mode:normal;color-interpolation:sRGB;color-interpolation-filters:linearRGB;solid-color:#000;solid-opacity:1;fill:#0080c0;fill-opacity:1;fill-rule:evenodd;stroke:none;stroke-width:200;stroke-linecap:butt;stroke-linejoin:miter;stroke-miterlimit:4;stroke-dasharray:none;stroke-dashoffset:0;stroke-opacity:1;color-rendering:auto;image-rendering:auto;shape-rendering:auto;text-rendering:auto;enable-background:accumulate" d="M853.746 318.631c-29.048 8.155-60.188 19.109-94.562 29.433-66.228 19.892-223.282 56.819-302.495 56.819-130.432 0-208.013-34.941-286.435-54.36v225.463c78.422 19.419 156.003 54.36 286.435 54.36 79.213 0 236.267-36.927 302.495-56.819 34.374-10.324 65.514-21.278 94.562-29.433Z"/><path style="color:#000;font-style:normal;font-variant:normal;font-weight:400;font-stretch:normal;font-size:medium;line-height:normal;font-family:sans-serif;text-indent:0;text-align:start;text-decoration:none;text-decoration-line:none;text-decoration-style:solid;text-decoration-color:#000;letter-spacing:normal;word-spacing:normal;text-transform:none;direction:ltr;block-progression:tb;writing-mode:lr-tb;baseline-shift:baseline;text-anchor:start;white-space:normal;clip-rule:nonzero;display:inline;overflow:visible;visibility:visible;opacity:1;isolation:auto;mix-blend-mode:normal;color-interpolation:sRGB;color-interpolation-filters:linearRGB;solid-color:#000;solid-opacity:1;fill:#00a0e0;fill-opacity:1;fill-rule:evenodd;stroke:none;stroke-width:200;stroke-linecap:butt;stroke-linejoin:miter;stroke-miterlimit:4;stroke-dasharray:none;stroke-dashoffset:0;stroke-opacity:1;color-rendering:auto;image-rendering:auto;shape-rendering:auto;text-rendering:auto;enable-background:accumulate" d="M853.782 544.094c-29.049 8.156-60.19 19.11-94.567 29.435-66.232 19.892-223.293 56.822-302.51 56.822-130.44 0-208.025-34.943-286.451-54.364v261.579c58.988 23.417 154.587 46.128 286.451 46.128 90.814 0 255.416-39.407 324.146-60.049 26.508-7.964 51.199-15.558 72.931-21.903Z"/></g></svg>